<svg width="286" height="288" viewBox="0 0 286 288" fill="none" xmlns="http://www.w3.org/2000/svg">
<g filter="url(#filter0_d_702_21272)">
<path d="M277.023 185.517C277.023 210.296 254.544 230.411 226.658 230.733C226.349 230.733 226.04 230.748 225.716 230.748H225.345C224.912 230.748 224.464 230.748 224.032 230.719C220.108 230.572 216.307 230.017 212.661 229.14C212.677 229.184 212.677 229.242 212.692 229.286C212.476 229.242 212.259 229.184 212.043 229.14C212.321 230.675 212.522 232.239 212.522 233.832C212.522 251.77 194.091 266.33 171.288 266.447H171.01C151.466 266.213 135.229 255.366 131.15 240.937C130.965 241.025 130.795 241.112 130.61 241.186C130.579 241.098 130.563 241.025 130.532 240.937C128.308 242.004 126.006 242.984 123.642 243.89C122.916 244.168 122.174 244.446 121.417 244.709C120.738 244.957 120.058 245.191 119.363 245.41C118.745 245.63 118.127 245.82 117.509 246.01C116.86 246.214 116.211 246.404 115.562 246.595C115.299 246.668 115.052 246.741 114.805 246.814C114.125 247.004 113.43 247.194 112.735 247.355C112.163 247.516 111.592 247.662 111.004 247.779C110.386 247.939 109.768 248.086 109.135 248.217C104.037 249.328 98.7377 250.103 93.2686 250.468C92.3725 250.527 91.4456 250.571 90.5341 250.615C89.9315 250.615 89.329 250.659 88.7265 250.688C87.7995 250.717 86.8726 250.732 85.9456 250.732H85.7448C85.2349 250.732 84.7406 250.732 84.2307 250.732C39.6594 249.884 3.86328 222.927 3.86328 189.8C3.86328 184.114 4.91384 178.632 6.89135 173.413C14.2607 153.882 34.5148 138.328 60.4697 131.998C59.4963 129.162 58.8784 126.165 58.6775 123.051C58.4303 119.352 58.8166 115.771 59.7126 112.35C59.6972 112.335 59.7126 112.321 59.7126 112.321C59.6972 111.897 59.6972 111.458 59.6972 111.02C59.6972 78.8145 86.1619 52.7053 118.806 52.7053C123.966 52.7053 128.941 53.4217 133.715 54.6496C132.34 51.9013 131.336 48.9922 130.749 45.9515C130.347 43.8902 130.131 41.7851 130.131 39.6215C130.131 18.5412 150.014 1.4372 174.578 1.29102C197.737 1.42258 216.709 16.6115 218.841 35.9814C219.042 35.923 219.243 35.8791 219.443 35.8352C219.443 35.8791 219.459 35.9376 219.459 35.9814C222.719 35.1189 226.071 34.6365 229.532 34.6219H229.748C255.857 34.6219 277.023 59.547 277.023 90.3195C277.023 115.128 263.258 136.12 244.224 143.327C263.397 149.833 277.023 166.25 277.023 185.517Z" fill="#EB7224"/>
<path d="M226.652 229.733C226.489 229.733 226.328 229.737 226.178 229.74L226.169 229.741C226.012 229.744 225.865 229.748 225.716 229.748H225.345C224.906 229.748 224.492 229.747 224.099 229.721L224.084 229.72L224.069 229.719C220.215 229.576 216.481 229.03 212.895 228.167L211.107 227.737L211.18 227.944L210.796 227.867L211.059 229.318C211.331 230.821 211.522 232.321 211.522 233.832C211.522 251.009 193.772 265.332 171.283 265.447H171.017C151.781 265.215 136.037 254.547 132.113 240.665L131.791 239.528L131.195 239.809L131.105 239.553L130.1 240.035C127.903 241.089 125.626 242.058 123.285 242.956C122.562 243.232 121.832 243.506 121.089 243.764L121.081 243.767L121.074 243.769C120.406 244.014 119.741 244.243 119.062 244.457L119.045 244.462L119.028 244.468C118.434 244.679 117.836 244.863 117.215 245.054L117.208 245.056C116.572 245.256 115.936 245.443 115.287 245.633C115.021 245.707 114.771 245.781 114.528 245.853C113.853 246.042 113.179 246.226 112.509 246.38L112.487 246.386L112.464 246.392C111.907 246.549 111.362 246.688 110.809 246.798L110.781 246.804L110.753 246.811C110.149 246.968 109.547 247.11 108.932 247.238L108.922 247.24C103.871 248.341 98.621 249.108 93.2035 249.471C92.3552 249.526 91.4777 249.568 90.6023 249.61L90.5097 249.615C90.0356 249.616 89.5532 249.642 89.1029 249.667C88.9603 249.674 88.8209 249.682 88.686 249.689C87.7725 249.717 86.8591 249.732 85.9456 249.732H85.7448H85.7418H85.7388H85.7358H85.7328H85.7298H85.7269H85.7239H85.7209H85.7179H85.7149H85.7119H85.709H85.706H85.703H85.7H85.697H85.694H85.6911H85.6881H85.6851H85.6821H85.6791H85.6762H85.6732H85.6702H85.6672H85.6642H85.6613H85.6583H85.6553H85.6523H85.6494H85.6464H85.6434H85.6404H85.6375H85.6345H85.6315H85.6285H85.6255H85.6226H85.6196H85.6166H85.6137H85.6107H85.6077H85.6047H85.6018H85.5988H85.5958H85.5928H85.5899H85.5869H85.5839H85.581H85.578H85.575H85.5721H85.5691H85.5661H85.5632H85.5602H85.5572H85.5543H85.5513H85.5483H85.5453H85.5424H85.5394H85.5365H85.5335H85.5305H85.5276H85.5246H85.5216H85.5187H85.5157H85.5127H85.5098H85.5068H85.5038H85.5009H85.4979H85.495H85.492H85.489H85.4861H85.4831H85.4801H85.4772H85.4742H85.4713H85.4683H85.4653H85.4624H85.4594H85.4565H85.4535H85.4505H85.4476H85.4446H85.4417H85.4387H85.4358H85.4328H85.4298H85.4269H85.4239H85.421H85.418H85.415H85.4121H85.4091H85.4062H85.4032H85.4003H85.3973H85.3944H85.3914H85.3885H85.3855H85.3825H85.3796H85.3766H85.3737H85.3707H85.3678H85.3648H85.3619H85.3589H85.356H85.353H85.3501H85.3471H85.3441H85.3412H85.3382H85.3353H85.3323H85.3294H85.3264H85.3235H85.3205H85.3176H85.3146H85.3117H85.3087H85.3058H85.3028H85.2999H85.2969H85.294H85.291H85.2881H85.2851H85.2822H85.2792H85.2763H85.2733H85.2704H85.2674H85.2645H85.2616H85.2586H85.2557H85.2527H85.2498H85.2468H85.2439H85.2409H85.238H85.235H85.2321H85.2291H85.2262H85.2232H85.2203H85.2173H85.2144H85.2114H85.2085H85.2056H85.2026H85.1997H85.1967H85.1938H85.1908H85.1879H85.1849H85.182H85.179H85.1761H85.1732H85.1702H85.1673H85.1643H85.1614H85.1584H85.1555H85.1525H85.1496H85.1467H85.1437H85.1408H85.1378H85.1349H85.1319H85.129H85.1261H85.1231H85.1202H85.1172H85.1143H85.1113H85.1084H85.1055H85.1025H85.0996H85.0966H85.0937H85.0907H85.0878H85.0848H85.0819H85.079H85.076H85.0731H85.0701H85.0672H85.0643H85.0613H85.0584H85.0554H85.0525H85.0495H85.0466H85.0437H85.0407H85.0378H85.0348H85.0319H85.0289H85.026H85.0231H85.0201H85.0172H85.0142H85.0113H85.0083H85.0054H85.0025H84.9995H84.9966H84.9936H84.9907H84.9878H84.9848H84.9819H84.9789H84.976H84.973H84.9701H84.9672H84.9642H84.9613H84.9583H84.9554H84.9525H84.9495H84.9466H84.9436H84.9407H84.9377H84.9348H84.9319H84.9289H84.926H84.923H84.9201H84.9171H84.9142H84.9113H84.9083H84.9054H84.9024H84.8995H84.8965H84.8936H84.8907H84.8877H84.8848H84.8818H84.8789H84.8759H84.873H84.8701H84.8671H84.8642H84.8612H84.8583H84.8553H84.8524H84.8495H84.8465H84.8436H84.8406H84.8377H84.8347H84.8318H84.8288H84.8259H84.823H84.82H84.8171H84.8141H84.8112H84.8082H84.8053H84.8024H84.7994H84.7965H84.7935H84.7906H84.7876H84.7847H84.7817H84.7788H84.7758H84.7729H84.77H84.767H84.7641H84.7611H84.7582H84.7552H84.7523H84.7493H84.7464H84.7434H84.7405H84.7375H84.7346H84.7316H84.7287H84.7258H84.7228H84.7199H84.7169H84.714H84.711H84.7081H84.7051H84.7022H84.6992H84.6963H84.6933H84.6904H84.6874H84.6845H84.6815H84.6786H84.6756H84.6727H84.6697H84.6668H84.6638H84.6609H84.6579H84.655H84.652H84.6491H84.6461H84.6432H84.6402H84.6373H84.6343H84.6314H84.6284H84.6255H84.6225H84.6196H84.6166H84.6136H84.6107H84.6077H84.6048H84.6018H84.5989H84.5959H84.593H84.59H84.5871H84.5841H84.5812H84.5782H84.5752H84.5723H84.5693H84.5664H84.5634H84.5605H84.5575H84.5545H84.5516H84.5486H84.5457H84.5427H84.5398H84.5368H84.5338H84.5309H84.5279H84.525H84.522H84.5191H84.5161H84.5131H84.5102H84.5072H84.5042H84.5013H84.4983H84.4954H84.4924H84.4894H84.4865H84.4835H84.4806H84.4776H84.4746H84.4717H84.4687H84.4657H84.4628H84.4598H84.4568H84.4539H84.4509H84.448H84.445H84.442H84.4391H84.4361H84.4331H84.4302H84.4272H84.4242H84.4213H84.4183H84.4153H84.4124H84.4094H84.4064H84.4035H84.4005H84.3975H84.3945H84.3916H84.3886H84.3856H84.3827H84.3797H84.3767H84.3737H84.3708H84.3678H84.3648H84.3619H84.3589H84.3559H84.3529H84.35H84.347H84.344H84.341H84.3381H84.3351H84.3321H84.3291H84.3262H84.3232H84.3202H84.3172H84.3142H84.3113H84.3083H84.3053H84.3023H84.2994H84.2964H84.2934H84.2904H84.2874H84.2845H84.2815H84.2785H84.2755H84.2725H84.2695H84.2666H84.2636H84.2606H84.2576H84.2546H84.2516H84.2486H84.2457H84.2427H84.2402C62.147 249.309 42.2688 242.417 27.9361 231.573C13.6016 220.728 4.86328 205.978 4.86328 189.8C4.86328 184.239 5.89026 178.877 7.82647 173.767L7.82696 173.766C15.0462 154.633 34.9674 139.247 60.7066 132.969L61.7712 132.71L61.4155 131.673C60.4703 128.919 59.8704 126.01 59.6755 122.987L59.6753 122.984C59.4414 119.484 59.7923 116.091 60.6189 112.84L60.7284 112.736L60.7183 112.457L60.83 112.031L60.7022 111.91C60.6972 111.623 60.6972 111.326 60.6972 111.02C60.6972 79.3795 86.7014 53.7053 118.806 53.7053C123.873 53.7053 128.764 54.4086 133.466 55.6181L135.591 56.1648L134.609 54.2022C133.274 51.5327 132.3 48.7101 131.731 45.7619L131.73 45.7602C131.34 43.7588 131.131 41.7178 131.131 39.6215C131.131 19.232 150.416 2.4375 174.579 2.29103C197.348 2.42291 215.783 17.3392 217.847 36.0908L217.977 37.2744L218.459 37.1342V37.2804L219.715 36.9482C222.898 36.1058 226.166 35.6363 229.534 35.6219H229.748C255.158 35.6219 276.023 59.9394 276.023 90.3195C276.023 114.783 262.452 135.356 243.87 142.392L241.264 143.379L243.903 144.274C262.747 150.668 276.023 166.754 276.023 185.517C276.023 209.638 254.104 229.414 226.652 229.733ZM226.652 229.733C226.654 229.733 226.656 229.733 226.658 229.733V230.733L226.647 229.733C226.648 229.733 226.65 229.733 226.652 229.733Z" stroke="#E65025" stroke-width="2"/>
</g>
<g clip-path="url(#clip0_702_21272)">
<path d="M217.152 182.549C212.589 182.549 208.199 181.957 203.984 180.9C204.245 182.464 204.462 184.071 204.462 185.678C204.462 204.031 186.078 218.874 163.348 218.874C143.704 218.874 127.32 207.752 123.235 192.909C110.457 199.21 95.2461 202.889 78.8615 202.889C48.7435 202.889 22.537 190.499 8.3689 172.104C6.2828 177.559 5.10938 183.31 5.10938 189.273C5.10938 223.526 41.703 251.351 86.8148 251.351C103.199 251.351 118.41 247.672 131.188 241.371C135.273 256.214 151.658 267.336 171.302 267.336C193.988 267.336 212.415 252.451 212.415 234.14C212.415 232.491 212.241 230.926 211.937 229.362C216.153 230.376 220.542 231.011 225.106 231.011C253.051 231.011 275.693 210.374 275.693 184.959C275.693 173.499 271.087 163.054 263.438 155.02C255.615 171.258 237.839 182.591 217.152 182.591V182.549Z" fill="#E65025"/>
</g>
<path d="M110.266 81.26C110.533 81.2333 110.759 81.3133 110.946 81.5C111.133 81.6733 111.226 81.8933 111.226 82.16C111.226 82.4133 111.139 82.6267 110.966 82.8C110.793 82.9733 110.586 83.06 110.346 83.06C110.253 83.06 110.146 83.0533 110.026 83.04C109.906 83.0267 109.786 83.0133 109.666 83H109.626C109.533 83 109.479 83.0467 109.466 83.14L106.286 95.68C106.219 95.92 106.086 96.1133 105.886 96.26C105.699 96.4067 105.493 96.48 105.266 96.48C105.026 96.48 104.813 96.4 104.626 96.24C104.439 96.0933 104.313 95.9067 104.246 95.68L101.506 85.14C101.493 85.06 101.453 85.02 101.386 85.02C101.333 85.02 101.293 85.06 101.266 85.14L98.5659 95.68C98.4993 95.92 98.3659 96.1133 98.1659 96.26C97.9793 96.4067 97.7659 96.48 97.5259 96.48C97.2859 96.48 97.0659 96.4067 96.8659 96.26C96.6793 96.1133 96.5526 95.92 96.4859 95.68L93.3059 83.14C93.2926 83.0467 93.2393 83 93.1459 83C93.0126 83 92.8859 83.0133 92.7659 83.04C92.6593 83.0533 92.5459 83.06 92.4259 83.06C92.1859 83.06 91.9793 82.9733 91.8059 82.8C91.6326 82.6267 91.5459 82.4133 91.5459 82.16C91.5459 81.8933 91.6393 81.6733 91.8259 81.5C92.0259 81.3133 92.2526 81.2333 92.5059 81.26C92.8926 81.3 93.2259 81.3333 93.5059 81.36C93.7993 81.3733 94.0793 81.38 94.3459 81.38C94.6126 81.38 94.8859 81.3733 95.1659 81.36C95.4593 81.3333 95.7926 81.3 96.1659 81.26C96.4326 81.2333 96.6593 81.3133 96.8459 81.5C97.0326 81.6733 97.1259 81.8933 97.1259 82.16C97.1259 82.4267 97.0326 82.6467 96.8459 82.82C96.6593 82.9933 96.4326 83.0733 96.1659 83.06C96.0193 83.0333 95.8659 83.02 95.7059 83.02C95.5459 83.0067 95.3859 82.9933 95.2259 82.98H95.1859C95.0793 82.98 95.0393 83.04 95.0659 83.16L97.4259 92.6C97.4526 92.68 97.4926 92.72 97.5459 92.72C97.5993 92.72 97.6326 92.68 97.6459 92.6L100.326 82.34C100.393 82.1 100.526 81.9067 100.726 81.76C100.926 81.6 101.146 81.52 101.386 81.52C101.626 81.52 101.846 81.6 102.046 81.76C102.246 81.9067 102.379 82.1 102.446 82.34L105.126 92.62C105.153 92.7 105.193 92.74 105.246 92.74C105.299 92.74 105.333 92.7 105.346 92.62L107.706 83.16V83.1C107.706 83.02 107.666 82.98 107.586 82.98C107.426 82.98 107.259 82.9867 107.086 83C106.926 83.0133 106.766 83.0333 106.606 83.06C106.353 83.0733 106.126 82.9933 105.926 82.82C105.739 82.6467 105.646 82.4267 105.646 82.16C105.646 81.8933 105.739 81.6733 105.926 81.5C106.126 81.3133 106.353 81.2333 106.606 81.26C106.993 81.3 107.326 81.3333 107.606 81.36C107.899 81.3733 108.179 81.38 108.446 81.38C108.713 81.38 108.986 81.3733 109.266 81.36C109.559 81.3333 109.893 81.3 110.266 81.26ZM126.274 94.68C126.514 94.68 126.72 94.7667 126.894 94.94C127.067 95.1 127.154 95.3133 127.154 95.58C127.154 95.8467 127.06 96.0667 126.874 96.24C126.687 96.4133 126.46 96.4933 126.194 96.48C125.82 96.44 125.48 96.4067 125.174 96.38C124.88 96.3667 124.587 96.36 124.294 96.36C124.027 96.36 123.754 96.3667 123.474 96.38C123.194 96.4067 122.88 96.44 122.534 96.48C122.28 96.4933 122.054 96.4133 121.854 96.24C121.667 96.0667 121.574 95.8467 121.574 95.58C121.574 95.3133 121.667 95.0933 121.854 94.92C122.054 94.7333 122.28 94.6533 122.534 94.68C122.68 94.6933 122.834 94.7067 122.994 94.72C123.154 94.7333 123.32 94.7467 123.494 94.76H123.534C123.627 94.76 123.674 94.7067 123.674 94.6V89.64C123.674 89.52 123.614 89.46 123.494 89.46H116.334C116.214 89.46 116.154 89.52 116.154 89.64V94.6C116.154 94.7067 116.2 94.76 116.294 94.76C116.467 94.76 116.634 94.7533 116.794 94.74C116.967 94.7133 117.134 94.6933 117.294 94.68C117.56 94.6533 117.787 94.7333 117.974 94.92C118.16 95.0933 118.254 95.3133 118.254 95.58C118.254 95.8467 118.16 96.0667 117.974 96.24C117.787 96.4133 117.56 96.4933 117.294 96.48C116.92 96.44 116.58 96.4067 116.274 96.38C115.98 96.3667 115.687 96.36 115.394 96.36C115.127 96.36 114.854 96.3667 114.574 96.38C114.294 96.4067 113.98 96.44 113.634 96.48C113.38 96.4933 113.154 96.4133 112.954 96.24C112.767 96.0667 112.674 95.8467 112.674 95.58C112.674 95.3133 112.76 95.1 112.934 94.94C113.107 94.7667 113.314 94.68 113.554 94.68C113.66 94.68 113.767 94.6867 113.874 94.7C113.98 94.7133 114.087 94.7267 114.194 94.74H114.234C114.327 94.74 114.374 94.6867 114.374 94.58V83.16C114.374 83.0533 114.327 83 114.234 83C114.114 83 114 83.0133 113.894 83.04C113.787 83.0533 113.674 83.06 113.554 83.06C113.314 83.06 113.107 82.9733 112.934 82.8C112.76 82.6267 112.674 82.4133 112.674 82.16C112.674 81.8933 112.767 81.6733 112.954 81.5C113.154 81.3133 113.38 81.2333 113.634 81.26C114.02 81.3 114.36 81.3333 114.654 81.36C114.947 81.3733 115.24 81.38 115.534 81.38C115.8 81.38 116.074 81.3733 116.354 81.36C116.634 81.3333 116.947 81.3 117.294 81.26C117.56 81.2333 117.787 81.3133 117.974 81.5C118.16 81.6733 118.254 81.8933 118.254 82.16C118.254 82.4267 118.16 82.6467 117.974 82.82C117.787 82.9933 117.56 83.0733 117.294 83.06C117.147 83.0333 116.987 83.02 116.814 83.02C116.654 83.0067 116.494 82.9933 116.334 82.98H116.294C116.2 82.98 116.154 83.0333 116.154 83.14V87.52C116.154 87.64 116.214 87.7 116.334 87.7H123.494C123.614 87.7 123.674 87.64 123.674 87.52V83.14C123.674 83.0333 123.627 82.98 123.534 82.98C123.36 82.98 123.187 82.9867 123.014 83C122.854 83.0133 122.694 83.0333 122.534 83.06C122.28 83.0733 122.054 82.9933 121.854 82.82C121.667 82.6467 121.574 82.4267 121.574 82.16C121.574 81.8933 121.667 81.6733 121.854 81.5C122.054 81.3133 122.28 81.2333 122.534 81.26C122.92 81.3 123.26 81.3333 123.554 81.36C123.847 81.3733 124.14 81.38 124.434 81.38C124.7 81.38 124.974 81.3733 125.254 81.36C125.534 81.3333 125.847 81.3 126.194 81.26C126.46 81.2333 126.687 81.3133 126.874 81.5C127.06 81.6733 127.154 81.8933 127.154 82.16C127.154 82.4133 127.067 82.6267 126.894 82.8C126.72 82.9733 126.514 83.06 126.274 83.06C126.167 83.06 126.06 83.0533 125.954 83.04C125.847 83.0267 125.74 83.0133 125.634 83H125.594C125.5 83 125.454 83.0533 125.454 83.16V94.58C125.454 94.6867 125.507 94.74 125.614 94.74C125.72 94.74 125.827 94.7333 125.934 94.72C126.04 94.6933 126.154 94.68 126.274 94.68ZM144.514 94.68C144.768 94.68 144.981 94.7667 145.154 94.94C145.328 95.1 145.414 95.3133 145.414 95.58C145.414 95.8467 145.314 96.0667 145.114 96.24C144.928 96.4133 144.701 96.4933 144.434 96.48C143.674 96.4 143.068 96.36 142.614 96.36C142.121 96.36 141.514 96.4 140.794 96.48C140.528 96.4933 140.301 96.4133 140.114 96.24C139.928 96.0667 139.834 95.8467 139.834 95.58C139.834 95.3133 139.914 95.1 140.074 94.94C140.248 94.7667 140.461 94.68 140.714 94.68C140.834 94.68 140.961 94.6867 141.094 94.7C141.241 94.7133 141.381 94.7333 141.514 94.76C141.674 94.76 141.721 94.6933 141.654 94.56L140.714 92.46C140.674 92.3667 140.608 92.32 140.514 92.32H133.594C133.514 92.32 133.448 92.3667 133.394 92.46L132.454 94.56C132.441 94.5867 132.434 94.6133 132.434 94.64C132.434 94.72 132.488 94.76 132.594 94.76C132.741 94.7333 132.881 94.7133 133.014 94.7C133.148 94.6867 133.274 94.68 133.394 94.68C133.648 94.68 133.854 94.7667 134.014 94.94C134.188 95.1 134.274 95.3133 134.274 95.58C134.274 95.8467 134.181 96.0667 133.994 96.24C133.808 96.4133 133.581 96.4933 133.314 96.48C132.541 96.4 131.934 96.36 131.494 96.36C130.988 96.36 130.381 96.4 129.674 96.48C129.408 96.4933 129.174 96.4133 128.974 96.24C128.788 96.0667 128.694 95.8467 128.694 95.58C128.694 95.3133 128.781 95.1 128.954 94.94C129.128 94.7667 129.341 94.68 129.594 94.68C129.728 94.68 129.854 94.6867 129.974 94.7C130.094 94.7133 130.214 94.7267 130.334 94.74H130.374C130.441 94.74 130.501 94.7 130.554 94.62L136.354 81.72C136.488 81.4133 136.721 81.26 137.054 81.26C137.374 81.26 137.601 81.4133 137.734 81.72L143.574 94.62C143.628 94.7 143.688 94.74 143.754 94.74C143.888 94.74 144.014 94.7333 144.134 94.72C144.268 94.6933 144.394 94.68 144.514 94.68ZM137.174 84.58C137.161 84.5 137.121 84.46 137.054 84.46C137.014 84.46 136.974 84.5 136.934 84.58L134.314 90.42C134.301 90.4467 134.294 90.4733 134.294 90.5C134.294 90.5933 134.348 90.64 134.454 90.64H139.654C139.814 90.64 139.861 90.5667 139.794 90.42L137.174 84.58ZM155.998 84.84C156.025 85.0933 155.945 85.32 155.758 85.52C155.571 85.72 155.338 85.82 155.058 85.82C154.778 85.82 154.545 85.72 154.358 85.52C154.185 85.32 154.105 85.0933 154.118 84.84L154.218 83.38C154.218 83.26 154.165 83.2 154.058 83.2H151.138C151.018 83.2 150.958 83.26 150.958 83.38V94.6C150.958 94.7067 151.005 94.76 151.098 94.76C151.258 94.76 151.411 94.7533 151.558 94.74C151.718 94.7133 151.865 94.6933 151.998 94.68C152.265 94.6533 152.491 94.7333 152.678 94.92C152.865 95.0933 152.958 95.3133 152.958 95.58C152.958 95.8333 152.865 96.0467 152.678 96.22C152.491 96.3933 152.265 96.4733 151.998 96.46C151.611 96.42 151.305 96.3933 151.078 96.38C150.865 96.3667 150.685 96.3533 150.538 96.34C150.391 96.34 150.231 96.34 150.058 96.34C149.871 96.34 149.705 96.34 149.558 96.34C149.411 96.3533 149.231 96.3667 149.018 96.38C148.818 96.3933 148.525 96.42 148.138 96.46C147.885 96.4733 147.658 96.3933 147.458 96.22C147.271 96.0467 147.178 95.8333 147.178 95.58C147.178 95.3133 147.271 95.0933 147.458 94.92C147.658 94.7333 147.885 94.6533 148.138 94.68C148.271 94.6933 148.411 94.7067 148.558 94.72C148.705 94.7333 148.851 94.7467 148.998 94.76H149.038C149.131 94.76 149.178 94.7067 149.178 94.6V83.38C149.178 83.26 149.118 83.2 148.998 83.2H146.058C145.951 83.2 145.898 83.26 145.898 83.38L145.998 84.84C146.025 85.0933 145.945 85.32 145.758 85.52C145.571 85.72 145.338 85.82 145.058 85.82C144.778 85.82 144.545 85.72 144.358 85.52C144.185 85.32 144.105 85.0933 144.118 84.84C144.145 84.5333 144.171 84.2 144.198 83.84C144.225 83.48 144.245 83.12 144.258 82.76C144.285 82.3867 144.425 82.0733 144.678 81.82C144.945 81.5667 145.258 81.44 145.618 81.44H154.518C154.865 81.44 155.171 81.5667 155.438 81.82C155.705 82.0733 155.845 82.3867 155.858 82.76C155.885 83.12 155.911 83.48 155.938 83.84C155.965 84.2 155.985 84.5333 155.998 84.84ZM178.323 94.68C178.576 94.68 178.79 94.7667 178.963 94.94C179.136 95.1 179.223 95.3133 179.223 95.58C179.223 95.8467 179.123 96.0667 178.923 96.24C178.736 96.4133 178.51 96.4933 178.243 96.48C177.483 96.4 176.876 96.36 176.423 96.36C175.93 96.36 175.323 96.4 174.603 96.48C174.336 96.4933 174.11 96.4133 173.923 96.24C173.736 96.0667 173.643 95.8467 173.643 95.58C173.643 95.3133 173.723 95.1 173.883 94.94C174.056 94.7667 174.27 94.68 174.523 94.68C174.643 94.68 174.77 94.6867 174.903 94.7C175.05 94.7133 175.19 94.7333 175.323 94.76C175.483 94.76 175.53 94.6933 175.463 94.56L174.523 92.46C174.483 92.3667 174.416 92.32 174.323 92.32H167.403C167.323 92.32 167.256 92.3667 167.203 92.46L166.263 94.56C166.25 94.5867 166.243 94.6133 166.243 94.64C166.243 94.72 166.296 94.76 166.403 94.76C166.55 94.7333 166.69 94.7133 166.823 94.7C166.956 94.6867 167.083 94.68 167.203 94.68C167.456 94.68 167.663 94.7667 167.823 94.94C167.996 95.1 168.083 95.3133 168.083 95.58C168.083 95.8467 167.99 96.0667 167.803 96.24C167.616 96.4133 167.39 96.4933 167.123 96.48C166.35 96.4 165.743 96.36 165.303 96.36C164.796 96.36 164.19 96.4 163.483 96.48C163.216 96.4933 162.983 96.4133 162.783 96.24C162.596 96.0667 162.503 95.8467 162.503 95.58C162.503 95.3133 162.59 95.1 162.763 94.94C162.936 94.7667 163.15 94.68 163.403 94.68C163.536 94.68 163.663 94.6867 163.783 94.7C163.903 94.7133 164.023 94.7267 164.143 94.74H164.183C164.25 94.74 164.31 94.7 164.363 94.62L170.163 81.72C170.296 81.4133 170.53 81.26 170.863 81.26C171.183 81.26 171.41 81.4133 171.543 81.72L177.383 94.62C177.436 94.7 177.496 94.74 177.563 94.74C177.696 94.74 177.823 94.7333 177.943 94.72C178.076 94.6933 178.203 94.68 178.323 94.68ZM170.983 84.58C170.97 84.5 170.93 84.46 170.863 84.46C170.823 84.46 170.783 84.5 170.743 84.58L168.123 90.42C168.11 90.4467 168.103 90.4733 168.103 90.5C168.103 90.5933 168.156 90.64 168.263 90.64H173.463C173.623 90.64 173.67 90.5667 173.603 90.42L170.983 84.58ZM188.44 81.44H191.1C192.593 81.44 193.9 81.7533 195.02 82.38C196.153 83.0067 197.04 83.88 197.68 85C198.32 86.1067 198.64 87.3933 198.64 88.86C198.64 90.4067 198.333 91.74 197.72 92.86C197.106 93.9667 196.226 94.82 195.08 95.42C193.946 96.0067 192.58 96.3 190.98 96.3H188.32C188.066 96.3 187.806 96.3133 187.54 96.34C187.286 96.38 187.04 96.42 186.8 96.46C186.52 96.4867 186.273 96.4067 186.06 96.22C185.86 96.0467 185.76 95.8133 185.76 95.52C185.76 95.2267 185.866 94.9867 186.08 94.8C186.293 94.6133 186.533 94.54 186.8 94.58L187.32 94.66H187.36C187.466 94.66 187.52 94.6067 187.52 94.5V83.24C187.52 83.12 187.453 83.06 187.32 83.06C187.213 83.0867 187.1 83.1067 186.98 83.12C186.873 83.1333 186.773 83.14 186.68 83.14C186.426 83.14 186.206 83.0533 186.02 82.88C185.846 82.6933 185.76 82.4733 185.76 82.22C185.76 81.9267 185.866 81.6867 186.08 81.5C186.293 81.3133 186.533 81.24 186.8 81.28C187.066 81.3067 187.34 81.34 187.62 81.38C187.9 81.42 188.173 81.44 188.44 81.44ZM189.32 94.34C189.32 94.46 189.38 94.52 189.5 94.52H190.98C191.42 94.52 191.906 94.48 192.44 94.4C192.973 94.32 193.5 94.1733 194.02 93.96C194.54 93.7333 195.013 93.4133 195.44 93C195.88 92.5733 196.226 92.0267 196.48 91.36C196.746 90.68 196.88 89.8467 196.88 88.86C196.88 88.1933 196.78 87.5333 196.58 86.88C196.38 86.2133 196.053 85.6067 195.6 85.06C195.146 84.5 194.546 84.0533 193.8 83.72C193.066 83.3867 192.166 83.22 191.1 83.22H189.5C189.38 83.22 189.32 83.28 189.32 83.4V94.34ZM213.909 94.68C214.162 94.68 214.376 94.7667 214.549 94.94C214.722 95.1 214.809 95.3133 214.809 95.58C214.809 95.8467 214.709 96.0667 214.509 96.24C214.322 96.4133 214.096 96.4933 213.829 96.48C213.069 96.4 212.462 96.36 212.009 96.36C211.516 96.36 210.909 96.4 210.189 96.48C209.922 96.4933 209.696 96.4133 209.509 96.24C209.322 96.0667 209.229 95.8467 209.229 95.58C209.229 95.3133 209.309 95.1 209.469 94.94C209.642 94.7667 209.856 94.68 210.109 94.68C210.229 94.68 210.356 94.6867 210.489 94.7C210.636 94.7133 210.776 94.7333 210.909 94.76C211.069 94.76 211.116 94.6933 211.049 94.56L210.109 92.46C210.069 92.3667 210.002 92.32 209.909 92.32H202.989C202.909 92.32 202.842 92.3667 202.789 92.46L201.849 94.56C201.836 94.5867 201.829 94.6133 201.829 94.64C201.829 94.72 201.882 94.76 201.989 94.76C202.136 94.7333 202.276 94.7133 202.409 94.7C202.542 94.6867 202.669 94.68 202.789 94.68C203.042 94.68 203.249 94.7667 203.409 94.94C203.582 95.1 203.669 95.3133 203.669 95.58C203.669 95.8467 203.576 96.0667 203.389 96.24C203.202 96.4133 202.976 96.4933 202.709 96.48C201.936 96.4 201.329 96.36 200.889 96.36C200.382 96.36 199.776 96.4 199.069 96.48C198.802 96.4933 198.569 96.4133 198.369 96.24C198.182 96.0667 198.089 95.8467 198.089 95.58C198.089 95.3133 198.176 95.1 198.349 94.94C198.522 94.7667 198.736 94.68 198.989 94.68C199.122 94.68 199.249 94.6867 199.369 94.7C199.489 94.7133 199.609 94.7267 199.729 94.74H199.769C199.836 94.74 199.896 94.7 199.949 94.62L205.749 81.72C205.882 81.4133 206.116 81.26 206.449 81.26C206.769 81.26 206.996 81.4133 207.129 81.72L212.969 94.62C213.022 94.7 213.082 94.74 213.149 94.74C213.282 94.74 213.409 94.7333 213.529 94.72C213.662 94.6933 213.789 94.68 213.909 94.68ZM206.569 84.58C206.556 84.5 206.516 84.46 206.449 84.46C206.409 84.46 206.369 84.5 206.329 84.58L203.709 90.42C203.696 90.4467 203.689 90.4733 203.689 90.5C203.689 90.5933 203.742 90.64 203.849 90.64H209.049C209.209 90.64 209.256 90.5667 209.189 90.42L206.569 84.58ZM224.658 81.32C224.924 81.2933 225.151 81.3733 225.338 81.56C225.524 81.7333 225.618 81.9533 225.618 82.22C225.618 82.4733 225.524 82.6867 225.338 82.86C225.151 83.0333 224.931 83.1133 224.678 83.1L224.018 83.06C223.911 83.06 223.838 83.1 223.798 83.18L220.118 89.96C220.078 90.0133 220.058 90.0867 220.058 90.18V94.54C220.058 94.6467 220.104 94.7 220.198 94.7C220.358 94.7 220.511 94.6933 220.658 94.68C220.818 94.6533 220.971 94.6333 221.118 94.62C221.384 94.5933 221.611 94.6733 221.798 94.86C221.984 95.0333 222.078 95.2533 222.078 95.52C222.078 95.7867 221.984 96.0067 221.798 96.18C221.611 96.3533 221.384 96.4333 221.118 96.42C220.731 96.38 220.378 96.3467 220.058 96.32C219.738 96.3067 219.424 96.3 219.118 96.3C218.598 96.3 217.984 96.34 217.278 96.42C217.011 96.4333 216.778 96.3533 216.578 96.18C216.391 96.0067 216.298 95.7867 216.298 95.52C216.298 95.2533 216.391 95.0333 216.578 94.86C216.778 94.6733 217.011 94.5933 217.278 94.62C217.411 94.6333 217.551 94.6467 217.698 94.66C217.858 94.6733 218.011 94.6867 218.158 94.7H218.198C218.291 94.7 218.338 94.6467 218.338 94.54V90.3C218.338 90.2067 218.318 90.1333 218.278 90.08L214.578 83.16C214.538 83.08 214.478 83.04 214.398 83.04C214.264 83.04 214.131 83.0533 213.998 83.08C213.878 83.0933 213.751 83.1 213.618 83.1C213.378 83.1 213.171 83.02 212.998 82.86C212.824 82.6867 212.738 82.4733 212.738 82.22C212.738 81.9533 212.831 81.7333 213.018 81.56C213.204 81.3733 213.431 81.2933 213.698 81.32C214.084 81.36 214.411 81.3933 214.678 81.42C214.958 81.4333 215.218 81.44 215.458 81.44C215.724 81.44 215.998 81.4333 216.278 81.42C216.571 81.3933 216.924 81.36 217.338 81.32C217.604 81.2933 217.831 81.3733 218.018 81.56C218.218 81.7333 218.318 81.9533 218.318 82.22C218.318 82.4733 218.231 82.6867 218.058 82.86C217.884 83.02 217.678 83.1 217.438 83.1C217.304 83.1 217.171 83.0933 217.038 83.08C216.904 83.0667 216.771 83.0533 216.638 83.04H216.598C216.544 83.04 216.504 83.06 216.478 83.1C216.464 83.14 216.471 83.1867 216.498 83.24L219.078 88.24C219.104 88.3067 219.144 88.34 219.198 88.34C219.251 88.34 219.291 88.3067 219.318 88.24L221.898 83.24C221.911 83.2133 221.918 83.18 221.918 83.14C221.918 83.0733 221.878 83.04 221.798 83.04C221.651 83.04 221.504 83.0533 221.358 83.08C221.211 83.0933 221.064 83.1 220.918 83.1C220.678 83.1 220.471 83.02 220.298 82.86C220.124 82.6867 220.038 82.4733 220.038 82.22C220.038 81.9533 220.131 81.7333 220.318 81.56C220.518 81.3733 220.751 81.2933 221.018 81.32C221.404 81.36 221.731 81.3933 221.998 81.42C222.264 81.4333 222.524 81.44 222.778 81.44C223.044 81.44 223.318 81.4333 223.598 81.42C223.891 81.3933 224.244 81.36 224.658 81.32ZM247.385 94.68C247.639 94.68 247.852 94.7667 248.025 94.94C248.199 95.1 248.285 95.3133 248.285 95.58C248.285 95.8467 248.185 96.0667 247.985 96.24C247.799 96.4133 247.572 96.4933 247.305 96.48C246.545 96.4 245.939 96.36 245.485 96.36C244.992 96.36 244.385 96.4 243.665 96.48C243.399 96.4933 243.172 96.4133 242.985 96.24C242.799 96.0667 242.705 95.8467 242.705 95.58C242.705 95.3133 242.785 95.1 242.945 94.94C243.119 94.7667 243.332 94.68 243.585 94.68C243.705 94.68 243.832 94.6867 243.965 94.7C244.112 94.7133 244.252 94.7333 244.385 94.76C244.545 94.76 244.592 94.6933 244.525 94.56L243.585 92.46C243.545 92.3667 243.479 92.32 243.385 92.32H236.465C236.385 92.32 236.319 92.3667 236.265 92.46L235.325 94.56C235.312 94.5867 235.305 94.6133 235.305 94.64C235.305 94.72 235.359 94.76 235.465 94.76C235.612 94.7333 235.752 94.7133 235.885 94.7C236.019 94.6867 236.145 94.68 236.265 94.68C236.519 94.68 236.725 94.7667 236.885 94.94C237.059 95.1 237.145 95.3133 237.145 95.58C237.145 95.8467 237.052 96.0667 236.865 96.24C236.679 96.4133 236.452 96.4933 236.185 96.48C235.412 96.4 234.805 96.36 234.365 96.36C233.859 96.36 233.252 96.4 232.545 96.48C232.279 96.4933 232.045 96.4133 231.845 96.24C231.659 96.0667 231.565 95.8467 231.565 95.58C231.565 95.3133 231.652 95.1 231.825 94.94C231.999 94.7667 232.212 94.68 232.465 94.68C232.599 94.68 232.725 94.6867 232.845 94.7C232.965 94.7133 233.085 94.7267 233.205 94.74H233.245C233.312 94.74 233.372 94.7 233.425 94.62L239.225 81.72C239.359 81.4133 239.592 81.26 239.925 81.26C240.245 81.26 240.472 81.4133 240.605 81.72L246.445 94.62C246.499 94.7 246.559 94.74 246.625 94.74C246.759 94.74 246.885 94.7333 247.005 94.72C247.139 94.6933 247.265 94.68 247.385 94.68ZM240.045 84.58C240.032 84.5 239.992 84.46 239.925 84.46C239.885 84.46 239.845 84.5 239.805 84.58L237.185 90.42C237.172 90.4467 237.165 90.4733 237.165 90.5C237.165 90.5933 237.219 90.64 237.325 90.64H242.525C242.685 90.64 242.732 90.5667 242.665 90.42L240.045 84.58ZM258.869 84.84C258.896 85.0933 258.816 85.32 258.629 85.52C258.443 85.72 258.209 85.82 257.929 85.82C257.649 85.82 257.416 85.72 257.229 85.52C257.056 85.32 256.976 85.0933 256.989 84.84L257.089 83.38C257.089 83.26 257.036 83.2 256.929 83.2H254.009C253.889 83.2 253.829 83.26 253.829 83.38V94.6C253.829 94.7067 253.876 94.76 253.969 94.76C254.129 94.76 254.283 94.7533 254.429 94.74C254.589 94.7133 254.736 94.6933 254.869 94.68C255.136 94.6533 255.363 94.7333 255.549 94.92C255.736 95.0933 255.829 95.3133 255.829 95.58C255.829 95.8333 255.736 96.0467 255.549 96.22C255.363 96.3933 255.136 96.4733 254.869 96.46C254.483 96.42 254.176 96.3933 253.949 96.38C253.736 96.3667 253.556 96.3533 253.409 96.34C253.263 96.34 253.103 96.34 252.929 96.34C252.743 96.34 252.576 96.34 252.429 96.34C252.283 96.3533 252.103 96.3667 251.889 96.38C251.689 96.3933 251.396 96.42 251.009 96.46C250.756 96.4733 250.529 96.3933 250.329 96.22C250.143 96.0467 250.049 95.8333 250.049 95.58C250.049 95.3133 250.143 95.0933 250.329 94.92C250.529 94.7333 250.756 94.6533 251.009 94.68C251.143 94.6933 251.283 94.7067 251.429 94.72C251.576 94.7333 251.723 94.7467 251.869 94.76H251.909C252.003 94.76 252.049 94.7067 252.049 94.6V83.38C252.049 83.26 251.989 83.2 251.869 83.2H248.929C248.823 83.2 248.769 83.26 248.769 83.38L248.869 84.84C248.896 85.0933 248.816 85.32 248.629 85.52C248.443 85.72 248.209 85.82 247.929 85.82C247.649 85.82 247.416 85.72 247.229 85.52C247.056 85.32 246.976 85.0933 246.989 84.84C247.016 84.5333 247.043 84.2 247.069 83.84C247.096 83.48 247.116 83.12 247.129 82.76C247.156 82.3867 247.296 82.0733 247.549 81.82C247.816 81.5667 248.129 81.44 248.489 81.44H257.389C257.736 81.44 258.043 81.5667 258.309 81.82C258.576 82.0733 258.716 82.3867 258.729 82.76C258.756 83.12 258.783 83.48 258.809 83.84C258.836 84.2 258.856 84.5333 258.869 84.84ZM114.931 105.26C115.198 105.233 115.425 105.313 115.611 105.5C115.811 105.673 115.911 105.893 115.911 106.16C115.911 106.413 115.825 106.627 115.651 106.8C115.478 106.973 115.265 107.06 115.011 107.06C114.905 107.06 114.785 107.053 114.651 107.04C114.531 107.027 114.405 107.013 114.271 107H114.231C114.138 107 114.091 107.053 114.091 107.16V114.8C114.091 115.96 113.885 116.967 113.471 117.82C113.058 118.673 112.465 119.333 111.691 119.8C110.931 120.253 110.025 120.48 108.971 120.48C107.918 120.48 107.005 120.253 106.231 119.8C105.471 119.333 104.885 118.673 104.471 117.82C104.058 116.967 103.851 115.96 103.851 114.8V107.16C103.851 107.053 103.805 107 103.711 107C103.578 107 103.445 107.013 103.311 107.04C103.191 107.053 103.065 107.06 102.931 107.06C102.678 107.06 102.465 106.973 102.291 106.8C102.118 106.627 102.031 106.413 102.031 106.16C102.031 105.893 102.125 105.673 102.311 105.5C102.511 105.313 102.745 105.233 103.011 105.26C103.398 105.3 103.731 105.333 104.011 105.36C104.291 105.373 104.565 105.38 104.831 105.38C105.098 105.38 105.371 105.373 105.651 105.36C105.945 105.333 106.278 105.3 106.651 105.26C106.918 105.233 107.145 105.313 107.331 105.5C107.518 105.673 107.611 105.893 107.611 106.16C107.611 106.427 107.518 106.647 107.331 106.82C107.145 106.993 106.918 107.073 106.651 107.06C106.518 107.033 106.378 107.02 106.231 107.02C106.085 107.007 105.938 106.993 105.791 106.98H105.751C105.658 106.98 105.611 107.033 105.611 107.14V114.82C105.611 115.02 105.625 115.28 105.651 115.6C105.691 115.92 105.765 116.267 105.871 116.64C105.991 117 106.171 117.347 106.411 117.68C106.665 118 106.998 118.267 107.411 118.48C107.825 118.68 108.345 118.78 108.971 118.78C109.611 118.78 110.138 118.68 110.551 118.48C110.965 118.267 111.291 117.993 111.531 117.66C111.771 117.327 111.945 116.98 112.051 116.62C112.171 116.247 112.245 115.9 112.271 115.58C112.311 115.26 112.331 115.007 112.331 114.82V107.14C112.331 107.033 112.285 106.98 112.191 106.98C112.031 106.98 111.878 106.987 111.731 107C111.585 107.013 111.438 107.033 111.291 107.06C111.038 107.073 110.811 106.993 110.611 106.82C110.425 106.647 110.331 106.427 110.331 106.16C110.331 105.893 110.425 105.673 110.611 105.5C110.811 105.313 111.038 105.233 111.291 105.26C111.678 105.3 112.011 105.333 112.291 105.36C112.585 105.373 112.858 105.38 113.111 105.38C113.378 105.38 113.651 105.373 113.931 105.36C114.225 105.333 114.558 105.3 114.931 105.26ZM129.582 108.84C129.609 109.093 129.529 109.32 129.342 109.52C129.155 109.72 128.922 109.82 128.642 109.82C128.362 109.82 128.129 109.72 127.942 109.52C127.769 109.32 127.689 109.093 127.702 108.84L127.802 107.38C127.802 107.26 127.749 107.2 127.642 107.2H124.722C124.602 107.2 124.542 107.26 124.542 107.38V118.6C124.542 118.707 124.589 118.76 124.682 118.76C124.842 118.76 124.995 118.753 125.142 118.74C125.302 118.713 125.449 118.693 125.582 118.68C125.849 118.653 126.075 118.733 126.262 118.92C126.449 119.093 126.542 119.313 126.542 119.58C126.542 119.833 126.449 120.047 126.262 120.22C126.075 120.393 125.849 120.473 125.582 120.46C125.195 120.42 124.889 120.393 124.662 120.38C124.449 120.367 124.269 120.353 124.122 120.34C123.975 120.34 123.815 120.34 123.642 120.34C123.455 120.34 123.289 120.34 123.142 120.34C122.995 120.353 122.815 120.367 122.602 120.38C122.402 120.393 122.109 120.42 121.722 120.46C121.469 120.473 121.242 120.393 121.042 120.22C120.855 120.047 120.762 119.833 120.762 119.58C120.762 119.313 120.855 119.093 121.042 118.92C121.242 118.733 121.469 118.653 121.722 118.68C121.855 118.693 121.995 118.707 122.142 118.72C122.289 118.733 122.435 118.747 122.582 118.76H122.622C122.715 118.76 122.762 118.707 122.762 118.6V107.38C122.762 107.26 122.702 107.2 122.582 107.2H119.642C119.535 107.2 119.482 107.26 119.482 107.38L119.582 108.84C119.609 109.093 119.529 109.32 119.342 109.52C119.155 109.72 118.922 109.82 118.642 109.82C118.362 109.82 118.129 109.72 117.942 109.52C117.769 109.32 117.689 109.093 117.702 108.84C117.729 108.533 117.755 108.2 117.782 107.84C117.809 107.48 117.829 107.12 117.842 106.76C117.869 106.387 118.009 106.073 118.262 105.82C118.529 105.567 118.842 105.44 119.202 105.44H128.102C128.449 105.44 128.755 105.567 129.022 105.82C129.289 106.073 129.429 106.387 129.442 106.76C129.469 107.12 129.495 107.48 129.522 107.84C129.549 108.2 129.569 108.533 129.582 108.84ZM134.467 109.22C134.427 109.727 134.534 110.14 134.787 110.46C135.054 110.767 135.414 111.027 135.867 111.24C136.334 111.453 136.847 111.647 137.407 111.82C137.967 111.993 138.527 112.187 139.087 112.4C139.647 112.6 140.16 112.86 140.627 113.18C141.107 113.487 141.487 113.887 141.767 114.38C142.06 114.86 142.207 115.473 142.207 116.22C142.207 117.033 141.987 117.76 141.547 118.4C141.12 119.04 140.527 119.547 139.767 119.92C139.007 120.293 138.147 120.48 137.187 120.48C135.987 120.48 134.987 120.267 134.187 119.84C133.387 119.4 132.767 118.92 132.327 118.4C131.994 118.013 131.827 117.6 131.827 117.16C131.827 116.787 131.947 116.467 132.187 116.2C132.427 115.933 132.774 115.8 133.227 115.8C133.6 115.8 133.907 115.94 134.147 116.22C134.4 116.5 134.527 116.813 134.527 117.16C134.527 117.333 134.487 117.513 134.407 117.7C134.367 117.807 134.38 117.887 134.447 117.94C134.794 118.207 135.18 118.407 135.607 118.54C136.047 118.673 136.487 118.74 136.927 118.74C137.514 118.74 138.074 118.64 138.607 118.44C139.14 118.227 139.574 117.933 139.907 117.56C140.24 117.173 140.407 116.727 140.407 116.22C140.407 115.767 140.267 115.393 139.987 115.1C139.707 114.793 139.334 114.54 138.867 114.34C138.414 114.127 137.914 113.933 137.367 113.76C136.82 113.587 136.267 113.393 135.707 113.18C135.16 112.967 134.654 112.707 134.187 112.4C133.734 112.08 133.367 111.687 133.087 111.22C132.807 110.753 132.667 110.173 132.667 109.48C132.667 108.72 132.8 108.073 133.067 107.54C133.347 106.993 133.72 106.56 134.187 106.24C134.654 105.907 135.174 105.667 135.747 105.52C136.32 105.36 136.907 105.28 137.507 105.28C138.267 105.28 138.994 105.387 139.687 105.6C140.38 105.813 140.94 106.107 141.367 106.48C141.807 106.853 142.027 107.28 142.027 107.76C142.014 108.133 141.874 108.453 141.607 108.72C141.354 108.987 141.04 109.12 140.667 109.12C140.294 109.12 139.974 108.987 139.707 108.72C139.454 108.453 139.327 108.133 139.327 107.76C139.327 107.627 139.334 107.533 139.347 107.48C139.374 107.373 139.367 107.313 139.327 107.3C139.154 107.207 138.894 107.127 138.547 107.06C138.214 106.993 137.854 106.96 137.467 106.96C137.027 106.96 136.58 107.027 136.127 107.16C135.687 107.28 135.314 107.507 135.007 107.84C134.7 108.16 134.52 108.62 134.467 109.22ZM158.528 118.68C158.781 118.68 158.995 118.767 159.168 118.94C159.341 119.1 159.428 119.313 159.428 119.58C159.428 119.847 159.328 120.067 159.128 120.24C158.941 120.413 158.715 120.493 158.448 120.48C157.688 120.4 157.081 120.36 156.628 120.36C156.135 120.36 155.528 120.4 154.808 120.48C154.541 120.493 154.315 120.413 154.128 120.24C153.941 120.067 153.848 119.847 153.848 119.58C153.848 119.313 153.928 119.1 154.088 118.94C154.261 118.767 154.475 118.68 154.728 118.68C154.848 118.68 154.975 118.687 155.108 118.7C155.255 118.713 155.395 118.733 155.528 118.76C155.688 118.76 155.735 118.693 155.668 118.56L154.728 116.46C154.688 116.367 154.621 116.32 154.528 116.32H147.608C147.528 116.32 147.461 116.367 147.408 116.46L146.468 118.56C146.455 118.587 146.448 118.613 146.448 118.64C146.448 118.72 146.501 118.76 146.608 118.76C146.755 118.733 146.895 118.713 147.028 118.7C147.161 118.687 147.288 118.68 147.408 118.68C147.661 118.68 147.868 118.767 148.028 118.94C148.201 119.1 148.288 119.313 148.288 119.58C148.288 119.847 148.195 120.067 148.008 120.24C147.821 120.413 147.595 120.493 147.328 120.48C146.555 120.4 145.948 120.36 145.508 120.36C145.001 120.36 144.395 120.4 143.688 120.48C143.421 120.493 143.188 120.413 142.988 120.24C142.801 120.067 142.708 119.847 142.708 119.58C142.708 119.313 142.795 119.1 142.968 118.94C143.141 118.767 143.355 118.68 143.608 118.68C143.741 118.68 143.868 118.687 143.988 118.7C144.108 118.713 144.228 118.727 144.348 118.74H144.388C144.455 118.74 144.515 118.7 144.568 118.62L150.368 105.72C150.501 105.413 150.735 105.26 151.068 105.26C151.388 105.26 151.615 105.413 151.748 105.72L157.588 118.62C157.641 118.7 157.701 118.74 157.768 118.74C157.901 118.74 158.028 118.733 158.148 118.72C158.281 118.693 158.408 118.68 158.528 118.68ZM151.188 108.58C151.175 108.5 151.135 108.46 151.068 108.46C151.028 108.46 150.988 108.5 150.948 108.58L148.328 114.42C148.315 114.447 148.308 114.473 148.308 114.5C148.308 114.593 148.361 114.64 148.468 114.64H153.668C153.828 114.64 153.875 114.567 153.808 114.42L151.188 108.58ZM170.215 105.26C170.482 105.233 170.709 105.313 170.895 105.5C171.082 105.673 171.175 105.893 171.175 106.16C171.175 106.427 171.082 106.647 170.895 106.82C170.709 106.993 170.482 107.073 170.215 107.06C169.975 107.02 169.735 107 169.495 107H169.455C169.402 107 169.349 107.047 169.295 107.14L165.235 119.5C165.142 119.793 164.962 120.027 164.695 120.2C164.442 120.387 164.162 120.48 163.855 120.48C163.549 120.48 163.269 120.387 163.015 120.2C162.775 120.027 162.602 119.793 162.495 119.5L158.455 107.14C158.415 107.047 158.362 107 158.295 107C158.055 107 157.802 107.02 157.535 107.06C157.282 107.073 157.055 106.993 156.855 106.82C156.669 106.647 156.575 106.427 156.575 106.16C156.575 105.893 156.669 105.673 156.855 105.5C157.055 105.313 157.282 105.233 157.535 105.26C157.922 105.3 158.255 105.333 158.535 105.36C158.829 105.373 159.102 105.38 159.355 105.38C159.622 105.38 159.895 105.373 160.175 105.36C160.469 105.333 160.802 105.3 161.175 105.26C161.442 105.233 161.669 105.313 161.855 105.5C162.055 105.673 162.155 105.893 162.155 106.16C162.155 106.427 162.055 106.647 161.855 106.82C161.669 106.993 161.442 107.073 161.175 107.06C161.069 107.033 160.955 107.02 160.835 107.02C160.729 107.02 160.622 107.013 160.515 107H160.475C160.355 107 160.315 107.067 160.355 107.2L163.755 117.78C163.809 117.873 163.849 117.92 163.875 117.92C163.929 117.92 163.969 117.873 163.995 117.78L167.435 107.2C167.435 107.187 167.435 107.173 167.435 107.16C167.449 107.147 167.455 107.133 167.455 107.12C167.455 107.04 167.409 107 167.315 107C167.062 107 166.815 107.02 166.575 107.06C166.309 107.073 166.075 106.993 165.875 106.82C165.689 106.647 165.595 106.427 165.595 106.16C165.595 105.893 165.689 105.673 165.875 105.5C166.075 105.313 166.309 105.233 166.575 105.26C166.962 105.3 167.295 105.333 167.575 105.36C167.855 105.373 168.129 105.38 168.395 105.38C168.662 105.38 168.935 105.373 169.215 105.36C169.509 105.333 169.842 105.3 170.215 105.26ZM187.323 116.02C187.589 116.02 187.816 116.12 188.003 116.32C188.203 116.507 188.296 116.733 188.283 117C188.269 117.293 188.249 117.613 188.223 117.96C188.196 118.293 188.169 118.633 188.143 118.98C188.129 119.353 187.989 119.667 187.723 119.92C187.456 120.173 187.143 120.3 186.783 120.3H180.703C180.356 120.313 180.009 120.34 179.663 120.38C179.316 120.433 178.989 120.46 178.683 120.46C178.416 120.46 178.189 120.367 178.003 120.18C177.816 119.993 177.723 119.767 177.723 119.5C177.723 119.233 177.816 119.007 178.003 118.82C178.203 118.62 178.429 118.52 178.683 118.52C178.763 118.52 178.836 118.527 178.903 118.54C178.983 118.553 179.089 118.56 179.223 118.56H179.263C179.369 118.56 179.423 118.507 179.423 118.4V107.16C179.423 107.053 179.376 107 179.283 107C179.149 107 179.029 107.013 178.923 107.04C178.829 107.053 178.729 107.06 178.623 107.06C178.369 107.06 178.156 106.973 177.983 106.8C177.809 106.627 177.723 106.413 177.723 106.16C177.723 105.893 177.816 105.673 178.003 105.5C178.203 105.313 178.436 105.233 178.703 105.26C179.089 105.3 179.423 105.333 179.703 105.36C179.996 105.373 180.269 105.38 180.523 105.38C180.789 105.38 181.063 105.373 181.343 105.36C181.636 105.333 181.969 105.3 182.343 105.26C182.609 105.233 182.836 105.313 183.023 105.5C183.209 105.673 183.303 105.893 183.303 106.16C183.303 106.427 183.209 106.647 183.023 106.82C182.836 106.993 182.609 107.073 182.343 107.06C182.196 107.033 182.043 107.02 181.883 107.02C181.723 107.007 181.563 106.993 181.403 106.98H181.363C181.269 106.98 181.223 107.033 181.223 107.14V118.34C181.223 118.46 181.283 118.52 181.403 118.52H186.323C186.456 118.52 186.509 118.46 186.483 118.34C186.469 118.087 186.449 117.84 186.423 117.6C186.396 117.36 186.383 117.14 186.383 116.94C186.383 116.687 186.469 116.473 186.643 116.3C186.829 116.113 187.056 116.02 187.323 116.02ZM196.624 105.26C197.624 105.26 198.564 105.46 199.444 105.86C200.324 106.247 201.097 106.793 201.764 107.5C202.43 108.193 202.95 109 203.324 109.92C203.71 110.84 203.904 111.82 203.904 112.86C203.904 113.913 203.71 114.9 203.324 115.82C202.95 116.74 202.43 117.553 201.764 118.26C201.097 118.953 200.324 119.5 199.444 119.9C198.564 120.287 197.624 120.48 196.624 120.48C195.624 120.48 194.684 120.287 193.804 119.9C192.924 119.5 192.15 118.953 191.484 118.26C190.817 117.553 190.29 116.74 189.904 115.82C189.53 114.9 189.344 113.913 189.344 112.86C189.344 111.82 189.53 110.84 189.904 109.92C190.29 109 190.817 108.193 191.484 107.5C192.15 106.793 192.924 106.247 193.804 105.86C194.684 105.46 195.624 105.26 196.624 105.26ZM196.624 118.66C197.677 118.66 198.61 118.413 199.424 117.92C200.237 117.413 200.877 116.727 201.344 115.86C201.824 114.98 202.064 113.98 202.064 112.86C202.064 111.74 201.824 110.747 201.344 109.88C200.877 109.013 200.23 108.333 199.404 107.84C198.59 107.333 197.664 107.08 196.624 107.08C195.57 107.08 194.63 107.333 193.804 107.84C192.99 108.333 192.344 109.02 191.864 109.9C191.397 110.767 191.164 111.753 191.164 112.86C191.164 113.967 191.397 114.96 191.864 115.84C192.344 116.72 192.997 117.413 193.824 117.92C194.65 118.413 195.584 118.66 196.624 118.66ZM213.342 105.26C214.342 105.26 215.282 105.46 216.162 105.86C217.042 106.247 217.816 106.793 218.482 107.5C219.149 108.193 219.669 109 220.042 109.92C220.429 110.84 220.622 111.82 220.622 112.86C220.622 113.913 220.429 114.9 220.042 115.82C219.669 116.74 219.149 117.553 218.482 118.26C217.816 118.953 217.042 119.5 216.162 119.9C215.282 120.287 214.342 120.48 213.342 120.48C212.342 120.48 211.402 120.287 210.522 119.9C209.642 119.5 208.869 118.953 208.202 118.26C207.536 117.553 207.009 116.74 206.622 115.82C206.249 114.9 206.062 113.913 206.062 112.86C206.062 111.82 206.249 110.84 206.622 109.92C207.009 109 207.536 108.193 208.202 107.5C208.869 106.793 209.642 106.247 210.522 105.86C211.402 105.46 212.342 105.26 213.342 105.26ZM213.342 118.66C214.396 118.66 215.329 118.413 216.142 117.92C216.956 117.413 217.596 116.727 218.062 115.86C218.542 114.98 218.782 113.98 218.782 112.86C218.782 111.74 218.542 110.747 218.062 109.88C217.596 109.013 216.949 108.333 216.122 107.84C215.309 107.333 214.382 107.08 213.342 107.08C212.289 107.08 211.349 107.333 210.522 107.84C209.709 108.333 209.062 109.02 208.582 109.9C208.116 110.767 207.882 111.753 207.882 112.86C207.882 113.967 208.116 114.96 208.582 115.84C209.062 116.72 209.716 117.413 210.542 117.92C211.369 118.413 212.302 118.66 213.342 118.66ZM235.741 118.68C236.008 118.653 236.235 118.733 236.421 118.92C236.621 119.093 236.721 119.313 236.721 119.58C236.721 119.847 236.621 120.067 236.421 120.24C236.235 120.413 236.008 120.493 235.741 120.48C235.341 120.44 234.988 120.407 234.681 120.38C234.375 120.367 234.075 120.36 233.781 120.36C233.501 120.36 233.215 120.367 232.921 120.38C232.628 120.407 232.288 120.44 231.901 120.48C231.648 120.493 231.421 120.413 231.221 120.24C231.035 120.067 230.941 119.847 230.941 119.58C230.941 119.313 231.028 119.1 231.201 118.94C231.375 118.767 231.581 118.68 231.821 118.68C231.928 118.68 232.028 118.687 232.121 118.7C232.228 118.713 232.328 118.727 232.421 118.74H232.461C232.528 118.74 232.568 118.72 232.581 118.68C232.595 118.627 232.581 118.573 232.541 118.52L228.881 112.92C228.815 112.813 228.735 112.807 228.641 112.9L226.381 115C226.315 115.067 226.281 115.14 226.281 115.22V118.6C226.281 118.707 226.328 118.76 226.421 118.76C226.608 118.76 226.788 118.753 226.961 118.74C227.148 118.713 227.321 118.7 227.481 118.7C227.721 118.7 227.928 118.787 228.101 118.96C228.275 119.12 228.361 119.327 228.361 119.58C228.361 119.847 228.261 120.067 228.061 120.24C227.875 120.413 227.648 120.493 227.381 120.48C227.008 120.44 226.675 120.407 226.381 120.38C226.101 120.367 225.828 120.36 225.561 120.36C225.308 120.36 225.035 120.367 224.741 120.38C224.461 120.407 224.128 120.44 223.741 120.48C223.488 120.493 223.261 120.413 223.061 120.24C222.875 120.067 222.781 119.847 222.781 119.58C222.781 119.313 222.875 119.093 223.061 118.92C223.261 118.747 223.488 118.673 223.741 118.7L224.301 118.74H224.341C224.435 118.74 224.481 118.687 224.481 118.58V107.16C224.481 107.053 224.435 107 224.341 107C224.208 107 224.088 107.013 223.981 107.04C223.888 107.053 223.788 107.06 223.681 107.06C223.428 107.06 223.215 106.973 223.041 106.8C222.881 106.627 222.801 106.413 222.801 106.16C222.801 105.893 222.895 105.673 223.081 105.5C223.268 105.313 223.495 105.233 223.761 105.26C224.148 105.3 224.481 105.333 224.761 105.36C225.055 105.373 225.328 105.38 225.581 105.38C225.848 105.38 226.121 105.373 226.401 105.36C226.695 105.333 227.028 105.3 227.401 105.26C227.668 105.233 227.895 105.313 228.081 105.5C228.281 105.673 228.381 105.893 228.381 106.16C228.381 106.427 228.281 106.647 228.081 106.82C227.895 106.993 227.668 107.073 227.401 107.06C227.255 107.033 227.101 107.02 226.941 107.02C226.781 107.007 226.621 106.993 226.461 106.98H226.421C226.328 106.98 226.281 107.033 226.281 107.14V112.46C226.281 112.54 226.301 112.593 226.341 112.62C226.395 112.633 226.448 112.613 226.501 112.56L232.281 107.2C232.321 107.16 232.341 107.12 232.341 107.08C232.341 107.027 232.301 107 232.221 107C232.115 107 231.995 107.013 231.861 107.04C231.728 107.053 231.608 107.06 231.501 107.06C231.248 107.06 231.035 106.973 230.861 106.8C230.688 106.627 230.601 106.413 230.601 106.16C230.601 105.893 230.695 105.673 230.881 105.5C231.081 105.313 231.315 105.233 231.581 105.26C231.995 105.3 232.355 105.333 232.661 105.36C232.968 105.373 233.268 105.38 233.561 105.38C233.841 105.38 234.128 105.373 234.421 105.36C234.715 105.333 235.048 105.3 235.421 105.26C235.688 105.233 235.915 105.313 236.101 105.5C236.288 105.673 236.381 105.893 236.381 106.16C236.381 106.413 236.295 106.627 236.121 106.8C235.961 106.973 235.755 107.06 235.501 107.06C235.448 107.06 235.395 107.06 235.341 107.06C235.288 107.047 235.241 107.04 235.201 107.04H235.141C235.075 107.04 235.015 107.067 234.961 107.12L230.201 111.48C230.108 111.547 230.101 111.633 230.181 111.74L234.681 118.66C234.721 118.727 234.775 118.76 234.841 118.76C235.001 118.76 235.155 118.753 235.301 118.74C235.461 118.713 235.608 118.693 235.741 118.68ZM240.756 109.22C240.716 109.727 240.823 110.14 241.076 110.46C241.343 110.767 241.703 111.027 242.156 111.24C242.623 111.453 243.136 111.647 243.696 111.82C244.256 111.993 244.816 112.187 245.376 112.4C245.936 112.6 246.449 112.86 246.916 113.18C247.396 113.487 247.776 113.887 248.056 114.38C248.349 114.86 248.496 115.473 248.496 116.22C248.496 117.033 248.276 117.76 247.836 118.4C247.409 119.04 246.816 119.547 246.056 119.92C245.296 120.293 244.436 120.48 243.476 120.48C242.276 120.48 241.276 120.267 240.476 119.84C239.676 119.4 239.056 118.92 238.616 118.4C238.283 118.013 238.116 117.6 238.116 117.16C238.116 116.787 238.236 116.467 238.476 116.2C238.716 115.933 239.063 115.8 239.516 115.8C239.889 115.8 240.196 115.94 240.436 116.22C240.689 116.5 240.816 116.813 240.816 117.16C240.816 117.333 240.776 117.513 240.696 117.7C240.656 117.807 240.669 117.887 240.736 117.94C241.083 118.207 241.469 118.407 241.896 118.54C242.336 118.673 242.776 118.74 243.216 118.74C243.803 118.74 244.363 118.64 244.896 118.44C245.429 118.227 245.863 117.933 246.196 117.56C246.529 117.173 246.696 116.727 246.696 116.22C246.696 115.767 246.556 115.393 246.276 115.1C245.996 114.793 245.623 114.54 245.156 114.34C244.703 114.127 244.203 113.933 243.656 113.76C243.109 113.587 242.556 113.393 241.996 113.18C241.449 112.967 240.943 112.707 240.476 112.4C240.023 112.08 239.656 111.687 239.376 111.22C239.096 110.753 238.956 110.173 238.956 109.48C238.956 108.72 239.089 108.073 239.356 107.54C239.636 106.993 240.009 106.56 240.476 106.24C240.943 105.907 241.463 105.667 242.036 105.52C242.609 105.36 243.196 105.28 243.796 105.28C244.556 105.28 245.283 105.387 245.976 105.6C246.669 105.813 247.229 106.107 247.656 106.48C248.096 106.853 248.316 107.28 248.316 107.76C248.303 108.133 248.163 108.453 247.896 108.72C247.643 108.987 247.329 109.12 246.956 109.12C246.583 109.12 246.263 108.987 245.996 108.72C245.743 108.453 245.616 108.133 245.616 107.76C245.616 107.627 245.623 107.533 245.636 107.48C245.663 107.373 245.656 107.313 245.616 107.3C245.443 107.207 245.183 107.127 244.836 107.06C244.503 106.993 244.143 106.96 243.756 106.96C243.316 106.96 242.869 107.027 242.416 107.16C241.976 107.28 241.603 107.507 241.296 107.84C240.989 108.16 240.809 108.62 240.756 109.22ZM158.534 140.02C158.8 140.02 159.027 140.12 159.214 140.32C159.414 140.507 159.507 140.733 159.494 141C159.48 141.293 159.46 141.613 159.434 141.96C159.407 142.293 159.38 142.633 159.354 142.98C159.34 143.353 159.2 143.667 158.934 143.92C158.667 144.173 158.354 144.3 157.994 144.3H151.914C151.567 144.313 151.22 144.34 150.874 144.38C150.527 144.433 150.2 144.46 149.894 144.46C149.627 144.46 149.4 144.367 149.214 144.18C149.027 143.993 148.934 143.767 148.934 143.5C148.934 143.233 149.027 143.007 149.214 142.82C149.414 142.62 149.64 142.52 149.894 142.52C149.974 142.52 150.047 142.527 150.114 142.54C150.194 142.553 150.3 142.56 150.434 142.56H150.474C150.58 142.56 150.634 142.507 150.634 142.4V131.16C150.634 131.053 150.587 131 150.494 131C150.36 131 150.24 131.013 150.134 131.04C150.04 131.053 149.94 131.06 149.834 131.06C149.58 131.06 149.367 130.973 149.194 130.8C149.02 130.627 148.934 130.413 148.934 130.16C148.934 129.893 149.027 129.673 149.214 129.5C149.414 129.313 149.647 129.233 149.914 129.26C150.3 129.3 150.634 129.333 150.914 129.36C151.207 129.373 151.48 129.38 151.734 129.38C152 129.38 152.274 129.373 152.554 129.36C152.847 129.333 153.18 129.3 153.554 129.26C153.82 129.233 154.047 129.313 154.234 129.5C154.42 129.673 154.514 129.893 154.514 130.16C154.514 130.427 154.42 130.647 154.234 130.82C154.047 130.993 153.82 131.073 153.554 131.06C153.407 131.033 153.254 131.02 153.094 131.02C152.934 131.007 152.774 130.993 152.614 130.98H152.574C152.48 130.98 152.434 131.033 152.434 131.14V142.34C152.434 142.46 152.494 142.52 152.614 142.52H157.534C157.667 142.52 157.72 142.46 157.694 142.34C157.68 142.087 157.66 141.84 157.634 141.6C157.607 141.36 157.594 141.14 157.594 140.94C157.594 140.687 157.68 140.473 157.854 140.3C158.04 140.113 158.267 140.02 158.534 140.02ZM166.468 142.68C166.735 142.653 166.962 142.733 167.148 142.92C167.348 143.093 167.448 143.313 167.448 143.58C167.448 143.847 167.348 144.067 167.148 144.24C166.962 144.413 166.735 144.493 166.468 144.48C166.095 144.44 165.748 144.407 165.428 144.38C165.108 144.367 164.795 144.36 164.488 144.36C163.955 144.36 163.335 144.4 162.628 144.48C162.362 144.493 162.128 144.413 161.928 144.24C161.742 144.067 161.648 143.847 161.648 143.58C161.648 143.313 161.742 143.093 161.928 142.92C162.128 142.733 162.362 142.653 162.628 142.68C162.762 142.693 162.902 142.707 163.048 142.72C163.195 142.733 163.342 142.747 163.488 142.76H163.528C163.622 142.76 163.668 142.707 163.668 142.6V131.14C163.668 131.033 163.622 130.98 163.528 130.98C163.368 130.98 163.215 130.987 163.068 131C162.922 131.013 162.775 131.033 162.628 131.06C162.362 131.073 162.128 130.993 161.928 130.82C161.742 130.647 161.648 130.427 161.648 130.16C161.648 129.893 161.742 129.673 161.928 129.5C162.128 129.313 162.362 129.233 162.628 129.26C163.015 129.3 163.362 129.333 163.668 129.36C163.988 129.373 164.302 129.38 164.608 129.38C165.128 129.38 165.748 129.34 166.468 129.26C166.735 129.233 166.962 129.313 167.148 129.5C167.348 129.673 167.448 129.893 167.448 130.16C167.448 130.427 167.348 130.647 167.148 130.82C166.962 130.993 166.735 131.073 166.468 131.06C166.335 131.033 166.202 131.02 166.068 131.02C165.935 131.007 165.795 130.993 165.648 130.98H165.608C165.515 130.98 165.468 131.033 165.468 131.14V142.6C165.468 142.707 165.522 142.76 165.628 142.76C165.762 142.76 165.902 142.753 166.048 142.74C166.195 142.713 166.335 142.693 166.468 142.68ZM182.577 142.68C182.844 142.653 183.07 142.733 183.257 142.92C183.457 143.093 183.557 143.313 183.557 143.58C183.557 143.847 183.457 144.067 183.257 144.24C183.07 144.413 182.844 144.493 182.577 144.48C182.177 144.44 181.824 144.407 181.517 144.38C181.21 144.367 180.91 144.36 180.617 144.36C180.337 144.36 180.05 144.367 179.757 144.38C179.464 144.407 179.124 144.44 178.737 144.48C178.484 144.493 178.257 144.413 178.057 144.24C177.87 144.067 177.777 143.847 177.777 143.58C177.777 143.313 177.864 143.1 178.037 142.94C178.21 142.767 178.417 142.68 178.657 142.68C178.764 142.68 178.864 142.687 178.957 142.7C179.064 142.713 179.164 142.727 179.257 142.74H179.297C179.364 142.74 179.404 142.72 179.417 142.68C179.43 142.627 179.417 142.573 179.377 142.52L175.717 136.92C175.65 136.813 175.57 136.807 175.477 136.9L173.217 139C173.15 139.067 173.117 139.14 173.117 139.22V142.6C173.117 142.707 173.164 142.76 173.257 142.76C173.444 142.76 173.624 142.753 173.797 142.74C173.984 142.713 174.157 142.7 174.317 142.7C174.557 142.7 174.764 142.787 174.937 142.96C175.11 143.12 175.197 143.327 175.197 143.58C175.197 143.847 175.097 144.067 174.897 144.24C174.71 144.413 174.484 144.493 174.217 144.48C173.844 144.44 173.51 144.407 173.217 144.38C172.937 144.367 172.664 144.36 172.397 144.36C172.144 144.36 171.87 144.367 171.577 144.38C171.297 144.407 170.964 144.44 170.577 144.48C170.324 144.493 170.097 144.413 169.897 144.24C169.71 144.067 169.617 143.847 169.617 143.58C169.617 143.313 169.71 143.093 169.897 142.92C170.097 142.747 170.324 142.673 170.577 142.7L171.137 142.74H171.177C171.27 142.74 171.317 142.687 171.317 142.58V131.16C171.317 131.053 171.27 131 171.177 131C171.044 131 170.924 131.013 170.817 131.04C170.724 131.053 170.624 131.06 170.517 131.06C170.264 131.06 170.05 130.973 169.877 130.8C169.717 130.627 169.637 130.413 169.637 130.16C169.637 129.893 169.73 129.673 169.917 129.5C170.104 129.313 170.33 129.233 170.597 129.26C170.984 129.3 171.317 129.333 171.597 129.36C171.89 129.373 172.164 129.38 172.417 129.38C172.684 129.38 172.957 129.373 173.237 129.36C173.53 129.333 173.864 129.3 174.237 129.26C174.504 129.233 174.73 129.313 174.917 129.5C175.117 129.673 175.217 129.893 175.217 130.16C175.217 130.427 175.117 130.647 174.917 130.82C174.73 130.993 174.504 131.073 174.237 131.06C174.09 131.033 173.937 131.02 173.777 131.02C173.617 131.007 173.457 130.993 173.297 130.98H173.257C173.164 130.98 173.117 131.033 173.117 131.14V136.46C173.117 136.54 173.137 136.593 173.177 136.62C173.23 136.633 173.284 136.613 173.337 136.56L179.117 131.2C179.157 131.16 179.177 131.12 179.177 131.08C179.177 131.027 179.137 131 179.057 131C178.95 131 178.83 131.013 178.697 131.04C178.564 131.053 178.444 131.06 178.337 131.06C178.084 131.06 177.87 130.973 177.697 130.8C177.524 130.627 177.437 130.413 177.437 130.16C177.437 129.893 177.53 129.673 177.717 129.5C177.917 129.313 178.15 129.233 178.417 129.26C178.83 129.3 179.19 129.333 179.497 129.36C179.804 129.373 180.104 129.38 180.397 129.38C180.677 129.38 180.964 129.373 181.257 129.36C181.55 129.333 181.884 129.3 182.257 129.26C182.524 129.233 182.75 129.313 182.937 129.5C183.124 129.673 183.217 129.893 183.217 130.16C183.217 130.413 183.13 130.627 182.957 130.8C182.797 130.973 182.59 131.06 182.337 131.06C182.284 131.06 182.23 131.06 182.177 131.06C182.124 131.047 182.077 131.04 182.037 131.04H181.977C181.91 131.04 181.85 131.067 181.797 131.12L177.037 135.48C176.944 135.547 176.937 135.633 177.017 135.74L181.517 142.66C181.557 142.727 181.61 142.76 181.677 142.76C181.837 142.76 181.99 142.753 182.137 142.74C182.297 142.713 182.444 142.693 182.577 142.68ZM195.012 140.32C195.292 140.32 195.525 140.42 195.712 140.62C195.899 140.807 195.979 141.033 195.952 141.3L195.832 142.98C195.819 143.353 195.679 143.667 195.412 143.92C195.145 144.173 194.832 144.3 194.472 144.3H187.392C187.152 144.3 186.899 144.32 186.632 144.36C186.379 144.4 186.132 144.433 185.892 144.46C185.612 144.5 185.365 144.427 185.152 144.24C184.939 144.053 184.832 143.813 184.832 143.52C184.832 143.227 184.939 142.993 185.152 142.82C185.365 142.633 185.612 142.56 185.892 142.6C185.932 142.613 185.979 142.62 186.032 142.62C186.085 142.62 186.145 142.627 186.212 142.64H186.252C186.359 142.64 186.412 142.587 186.412 142.48V131.24C186.412 131.12 186.359 131.06 186.252 131.06C186.199 131.06 186.139 131.073 186.072 131.1C186.019 131.113 185.959 131.127 185.892 131.14C185.612 131.18 185.365 131.113 185.152 130.94C184.939 130.753 184.832 130.513 184.832 130.22C184.832 129.927 184.939 129.687 185.152 129.5C185.365 129.313 185.612 129.24 185.892 129.28C186.159 129.307 186.432 129.34 186.712 129.38C186.992 129.42 187.259 129.44 187.512 129.44H194.472C194.832 129.44 195.145 129.567 195.412 129.82C195.679 130.073 195.819 130.387 195.832 130.76L195.952 132.44C195.979 132.693 195.899 132.92 195.712 133.12C195.525 133.32 195.292 133.42 195.012 133.42C194.745 133.42 194.519 133.333 194.332 133.16C194.159 132.973 194.072 132.753 194.072 132.5C194.072 132.34 194.079 132.167 194.092 131.98C194.119 131.78 194.139 131.587 194.152 131.4C194.152 131.28 194.092 131.22 193.972 131.22H188.392C188.272 131.22 188.212 131.28 188.212 131.4V135.52C188.212 135.64 188.272 135.7 188.392 135.7H193.292C193.532 135.7 193.739 135.787 193.912 135.96C194.085 136.133 194.172 136.34 194.172 136.58C194.172 136.82 194.085 137.027 193.912 137.2C193.739 137.36 193.532 137.44 193.292 137.44H188.392C188.272 137.44 188.212 137.5 188.212 137.62V142.34C188.212 142.46 188.272 142.52 188.392 142.52H193.972C194.092 142.52 194.152 142.46 194.152 142.34C194.139 142.14 194.119 141.953 194.092 141.78C194.079 141.593 194.072 141.413 194.072 141.24C194.072 140.987 194.159 140.773 194.332 140.6C194.519 140.413 194.745 140.32 195.012 140.32ZM200.246 140.96C200.046 140.96 199.872 140.893 199.726 140.76C199.579 140.613 199.499 140.433 199.486 140.22L199.246 130.1C199.246 129.833 199.339 129.6 199.526 129.4C199.726 129.2 199.966 129.1 200.246 129.1C200.526 129.1 200.759 129.2 200.946 129.4C201.146 129.6 201.239 129.833 201.226 130.1L200.986 140.22C200.986 140.42 200.912 140.593 200.766 140.74C200.619 140.887 200.446 140.96 200.246 140.96ZM200.246 144.5C199.886 144.5 199.579 144.367 199.326 144.1C199.072 143.847 198.946 143.54 198.946 143.18C198.946 142.833 199.072 142.533 199.326 142.28C199.579 142.013 199.886 141.88 200.246 141.88C200.592 141.88 200.892 142.013 201.146 142.28C201.412 142.533 201.546 142.833 201.546 143.18C201.546 143.54 201.419 143.847 201.166 144.1C200.912 144.367 200.606 144.5 200.246 144.5Z" fill="white"/>
<path d="M75.4107 175.969C75.523 176.508 75.1723 177.025 74.6275 177.122C74.0827 177.22 73.5501 176.861 73.4378 176.322L75.4107 175.969ZM79.6755 163.401L80.4817 164.016L79.6755 163.401ZM94.9594 154.951L95.2746 154.016L95.3431 154.04L95.4077 154.073L94.9594 154.951ZM95.5 159.5L94.5655 159.107L95.5 159.5ZM89.5245 161.884L89.6609 160.904L89.5245 161.884ZM85.5637 141.948L84.9624 141.137L85.5637 141.948ZM114.194 129.048C114.724 128.893 115.291 129.193 115.462 129.719L118.236 138.29C118.406 138.816 118.114 139.368 117.585 139.523C117.055 139.678 116.488 139.377 116.318 138.851L113.852 131.233L106.181 133.478C105.652 133.633 105.085 133.332 104.914 132.806C104.744 132.28 105.035 131.728 105.565 131.573L114.194 129.048ZM73.4378 176.322C72.9107 173.788 73.701 171.18 74.849 168.884C76.0055 166.57 77.5993 164.428 78.8693 162.787L80.4817 164.016C79.2188 165.648 77.7264 167.663 76.6602 169.796C75.5855 171.946 75.0166 174.074 75.4107 175.969L73.4378 176.322ZM78.8693 162.787C79.245 162.302 79.6326 161.762 80.05 161.179C80.4639 160.601 80.9049 159.983 81.373 159.366C82.3078 158.132 83.3794 156.858 84.6495 155.799C85.9246 154.736 87.4202 153.873 89.2026 153.491C90.9921 153.107 93.0024 153.223 95.2746 154.016L94.6441 155.886C92.6867 155.203 91.0602 155.135 89.6765 155.432C88.2857 155.73 87.0718 156.411 85.9718 157.328C84.8669 158.249 83.8979 159.39 82.9974 160.578C82.5478 161.172 82.1224 161.767 81.7052 162.35C81.2914 162.928 80.883 163.497 80.4817 164.016L78.8693 162.787ZM95.4077 154.073C96.134 154.446 96.615 154.993 96.8816 155.627C97.1379 156.236 97.1731 156.868 97.1262 157.416C97.034 158.492 96.5948 159.503 96.4345 159.892L94.5655 159.107C94.7457 158.669 95.0565 157.931 95.119 157.201C95.1494 156.846 95.1132 156.562 95.0237 156.349C94.9444 156.16 94.8051 155.98 94.5111 155.829L95.4077 154.073ZM96.4345 159.892C95.8818 161.234 94.6746 162.068 93.407 162.514C92.133 162.962 90.6746 163.069 89.3881 162.864L89.6609 160.904C90.6285 161.058 91.7449 160.974 92.6887 160.642C93.6389 160.307 94.2924 159.77 94.5655 159.107L96.4345 159.892ZM89.3881 162.864C84.8805 162.148 81.4921 158.291 80.3577 153.942C79.2097 149.542 80.3057 144.44 84.9624 141.137L86.165 142.759C82.258 145.53 81.3345 149.761 82.3078 153.492C83.2949 157.276 86.1687 160.35 89.6609 160.904L89.3881 162.864ZM84.9624 141.137C88.9724 138.293 92.1276 137.653 94.8383 138.048C96.1667 138.242 97.3331 138.678 98.3723 139.145C98.8894 139.378 99.3868 139.624 99.8502 139.851C100.321 140.081 100.756 140.292 101.182 140.475C102.036 140.84 102.776 141.054 103.504 141.052C104.209 141.049 104.99 140.842 105.917 140.211C107.837 138.902 110.263 135.861 113.607 129.525L115.399 130.475C112.047 136.826 109.438 140.253 107.089 141.853C105.881 142.676 104.718 143.033 103.56 143.037C102.424 143.041 101.381 142.705 100.419 142.293C99.937 142.087 99.4568 141.853 98.9893 141.624C98.5148 141.392 98.0525 141.163 97.5739 140.948C96.6217 140.52 95.653 140.168 94.5909 140.012C92.5206 139.71 89.8732 140.128 86.165 142.759L84.9624 141.137Z" fill="white"/>
<path d="M29.7282 193.18C28.7482 193.18 27.9032 192.965 27.1932 192.535C26.4932 192.105 25.9732 191.51 25.6332 190.75C25.2932 189.99 25.1732 189.11 25.2732 188.11C25.3532 187.3 25.5582 186.545 25.8882 185.845C26.2182 185.145 26.6532 184.53 27.1932 184C27.7332 183.47 28.3482 183.06 29.0382 182.77C29.7382 182.47 30.4882 182.32 31.2882 182.32C31.9882 182.32 32.6232 182.445 33.1932 182.695C33.7732 182.945 34.2632 183.295 34.6632 183.745C35.0632 184.185 35.3432 184.69 35.5032 185.26L33.8682 185.8C33.7482 185.41 33.5582 185.075 33.2982 184.795C33.0482 184.515 32.7482 184.3 32.3982 184.15C32.0482 183.99 31.6682 183.91 31.2582 183.91C30.7082 183.91 30.1882 184.02 29.6982 184.24C29.2182 184.46 28.7882 184.765 28.4082 185.155C28.0382 185.535 27.7332 185.98 27.4932 186.49C27.2532 187 27.1032 187.545 27.0432 188.125C26.9632 188.805 27.0232 189.41 27.2232 189.94C27.4232 190.46 27.7432 190.87 28.1832 191.17C28.6232 191.46 29.1582 191.605 29.7882 191.605C30.2482 191.605 30.6932 191.515 31.1232 191.335C31.5532 191.145 31.9482 190.895 32.3082 190.585C32.6682 190.265 32.9732 189.9 33.2232 189.49L34.7382 190.24C34.3882 190.82 33.9482 191.335 33.4182 191.785C32.8882 192.225 32.3032 192.57 31.6632 192.82C31.0332 193.06 30.3882 193.18 29.7282 193.18ZM36.062 193L37.802 182.5H39.482L37.742 193H36.062ZM41.132 193L41.777 189.145L43.502 188.92L42.812 193H41.132ZM41.777 189.145C41.877 188.545 41.887 188.085 41.807 187.765C41.727 187.445 41.577 187.22 41.357 187.09C41.137 186.96 40.867 186.895 40.547 186.895C39.967 186.885 39.487 187.075 39.107 187.465C38.737 187.845 38.492 188.39 38.372 189.1L37.742 189.07C37.872 188.27 38.097 187.595 38.417 187.045C38.747 186.485 39.147 186.06 39.617 185.77C40.097 185.47 40.627 185.32 41.207 185.32C42.127 185.32 42.792 185.6 43.202 186.16C43.622 186.72 43.732 187.575 43.532 188.725L43.457 189.145H41.777ZM48.4234 193.18C47.6634 193.15 47.0184 192.96 46.4884 192.61C45.9584 192.25 45.5734 191.765 45.3334 191.155C45.1034 190.545 45.0534 189.85 45.1834 189.07C45.3134 188.3 45.5834 187.63 45.9934 187.06C46.4134 186.49 46.9334 186.05 47.5534 185.74C48.1834 185.43 48.8684 185.29 49.6084 185.32C50.3484 185.35 50.9584 185.54 51.4384 185.89C51.9184 186.24 52.2534 186.73 52.4434 187.36C52.6434 187.99 52.6634 188.735 52.5034 189.595H46.8034C46.7634 190.055 46.8084 190.45 46.9384 190.78C47.0684 191.11 47.2734 191.365 47.5534 191.545C47.8334 191.725 48.1634 191.82 48.5434 191.83C49.0234 191.84 49.4534 191.735 49.8334 191.515C50.2134 191.285 50.5084 190.99 50.7184 190.63L52.0834 191.335C51.8234 191.765 51.4984 192.12 51.1084 192.4C50.7184 192.68 50.2934 192.885 49.8334 193.015C49.3734 193.145 48.9034 193.2 48.4234 193.18ZM47.0584 188.425H50.9584C50.9484 187.875 50.8234 187.435 50.5834 187.105C50.3434 186.775 49.9534 186.605 49.4134 186.595C48.8734 186.585 48.3984 186.745 47.9884 187.075C47.5784 187.405 47.2684 187.855 47.0584 188.425ZM57.2191 193.18C56.4691 193.18 55.8291 193.015 55.2991 192.685C54.7691 192.345 54.3741 191.89 54.1141 191.32C53.8641 190.75 53.7791 190.115 53.8591 189.415C53.9291 188.595 54.1591 187.88 54.5491 187.27C54.9391 186.66 55.4441 186.185 56.0641 185.845C56.6841 185.495 57.3641 185.32 58.1041 185.32C58.6541 185.32 59.1491 185.41 59.5891 185.59C60.0391 185.77 60.4191 186.015 60.7291 186.325C61.0391 186.635 61.2541 187 61.3741 187.42L59.7691 187.93C59.6291 187.59 59.4141 187.33 59.1241 187.15C58.8441 186.97 58.4991 186.88 58.0891 186.88C57.6591 186.88 57.2641 186.985 56.9041 187.195C56.5441 187.405 56.2441 187.695 56.0041 188.065C55.7741 188.435 55.6241 188.865 55.5541 189.355C55.5041 189.795 55.5391 190.185 55.6591 190.525C55.7891 190.855 55.9991 191.12 56.2891 191.32C56.5791 191.52 56.9291 191.62 57.3391 191.62C57.7791 191.62 58.1841 191.51 58.5541 191.29C58.9241 191.07 59.2191 190.78 59.4391 190.42L60.8791 191.095C60.4791 191.775 59.9591 192.295 59.3191 192.655C58.6891 193.005 57.9891 193.18 57.2191 193.18ZM62.2519 193L64.0069 182.5H65.7019L63.9469 193H62.2519ZM64.2769 190.9L63.3919 189.745L67.9819 185.5H70.0519L64.2769 190.9ZM67.0519 193L65.0569 189.115L66.2869 187.945L68.9869 193H67.0519ZM78.094 193.18C77.314 193.18 76.639 193.005 76.069 192.655C75.509 192.305 75.099 191.825 74.839 191.215C74.589 190.595 74.534 189.88 74.674 189.07C74.794 188.33 75.054 187.68 75.454 187.12C75.854 186.55 76.354 186.11 76.954 185.8C77.554 185.48 78.209 185.32 78.919 185.32C79.699 185.32 80.369 185.495 80.929 185.845C81.489 186.195 81.894 186.68 82.144 187.3C82.404 187.91 82.464 188.62 82.324 189.43C82.204 190.17 81.944 190.825 81.544 191.395C81.144 191.955 80.644 192.395 80.044 192.715C79.454 193.025 78.804 193.18 78.094 193.18ZM78.124 191.635C78.544 191.635 78.929 191.535 79.279 191.335C79.629 191.135 79.924 190.86 80.164 190.51C80.404 190.15 80.564 189.735 80.644 189.265C80.714 188.785 80.684 188.365 80.554 188.005C80.434 187.645 80.229 187.365 79.939 187.165C79.649 186.965 79.294 186.865 78.874 186.865C78.464 186.865 78.079 186.965 77.719 187.165C77.369 187.365 77.074 187.645 76.834 188.005C76.594 188.355 76.434 188.765 76.354 189.235C76.274 189.715 76.299 190.135 76.429 190.495C76.559 190.855 76.769 191.135 77.059 191.335C77.359 191.535 77.714 191.635 78.124 191.635ZM88.6042 193L88.7392 191.62L89.7592 185.5H91.4392L90.1792 193H88.6042ZM83.9842 189.58L84.6742 185.5H86.3392L85.6942 189.355L83.9842 189.58ZM85.6942 189.355C85.5942 189.945 85.5842 190.405 85.6642 190.735C85.7542 191.055 85.9092 191.28 86.1292 191.41C86.3592 191.54 86.6242 191.605 86.9242 191.605C87.5042 191.615 87.9842 191.43 88.3642 191.05C88.7442 190.66 88.9942 190.11 89.1142 189.4L89.7442 189.43C89.6142 190.23 89.3842 190.91 89.0542 191.47C88.7342 192.02 88.3392 192.445 87.8692 192.745C87.3992 193.035 86.8692 193.18 86.2792 193.18C85.3692 193.18 84.7042 192.9 84.2842 192.34C83.8742 191.77 83.7642 190.915 83.9542 189.775L84.0142 189.355H85.6942ZM95.5206 193.18C94.7406 193.18 94.1806 192.98 93.8406 192.58C93.5006 192.17 93.3906 191.6 93.5106 190.87L94.8006 183.16H96.4656L95.2206 190.585C95.1706 190.935 95.2056 191.2 95.3256 191.38C95.4456 191.55 95.6606 191.635 95.9706 191.635C96.0806 191.635 96.2006 191.61 96.3306 191.56C96.4606 191.51 96.6156 191.435 96.7956 191.335L97.2156 192.64C96.9156 192.82 96.6206 192.955 96.3306 193.045C96.0506 193.135 95.7806 193.18 95.5206 193.18ZM92.9256 186.94L93.1656 185.5H98.1006L97.8606 186.94H92.9256ZM29.4636 211.18C28.6836 211.18 28.0086 211.005 27.4386 210.655C26.8786 210.305 26.4686 209.825 26.2086 209.215C25.9586 208.595 25.9036 207.88 26.0436 207.07C26.1636 206.33 26.4236 205.68 26.8236 205.12C27.2236 204.55 27.7236 204.11 28.3236 203.8C28.9236 203.48 29.5786 203.32 30.2886 203.32C31.0686 203.32 31.7386 203.495 32.2986 203.845C32.8586 204.195 33.2636 204.68 33.5136 205.3C33.7736 205.91 33.8336 206.62 33.6936 207.43C33.5736 208.17 33.3136 208.825 32.9136 209.395C32.5136 209.955 32.0136 210.395 31.4136 210.715C30.8236 211.025 30.1736 211.18 29.4636 211.18ZM29.4936 209.635C29.9136 209.635 30.2986 209.535 30.6486 209.335C30.9986 209.135 31.2936 208.86 31.5336 208.51C31.7736 208.15 31.9336 207.735 32.0136 207.265C32.0836 206.785 32.0536 206.365 31.9236 206.005C31.8036 205.645 31.5986 205.365 31.3086 205.165C31.0186 204.965 30.6636 204.865 30.2436 204.865C29.8336 204.865 29.4486 204.965 29.0886 205.165C28.7386 205.365 28.4436 205.645 28.2036 206.005C27.9636 206.355 27.8036 206.765 27.7236 207.235C27.6436 207.715 27.6686 208.135 27.7986 208.495C27.9286 208.855 28.1386 209.135 28.4286 209.335C28.7286 209.535 29.0836 209.635 29.4936 209.635ZM39.9737 211L40.1087 209.62L41.1287 203.5H42.8087L41.5487 211H39.9737ZM35.3537 207.58L36.0437 203.5H37.7087L37.0637 207.355L35.3537 207.58ZM37.0637 207.355C36.9637 207.945 36.9537 208.405 37.0337 208.735C37.1237 209.055 37.2787 209.28 37.4987 209.41C37.7287 209.54 37.9937 209.605 38.2937 209.605C38.8737 209.615 39.3537 209.43 39.7337 209.05C40.1137 208.66 40.3637 208.11 40.4837 207.4L41.1137 207.43C40.9837 208.23 40.7537 208.91 40.4237 209.47C40.1037 210.02 39.7087 210.445 39.2387 210.745C38.7687 211.035 38.2387 211.18 37.6487 211.18C36.7387 211.18 36.0737 210.9 35.6537 210.34C35.2437 209.77 35.1337 208.915 35.3237 207.775L35.3837 207.355H37.0637ZM43.8151 211L45.0751 203.5H46.7551L45.4951 211H43.8151ZM45.5851 207.025C45.7251 206.215 45.9901 205.55 46.3801 205.03C46.7801 204.5 47.2451 204.11 47.7751 203.86C48.3151 203.6 48.8551 203.47 49.3951 203.47L49.1551 205.075C48.7051 205.075 48.2651 205.14 47.8351 205.27C47.4051 205.4 47.0401 205.605 46.7401 205.885C46.4401 206.165 46.2501 206.54 46.1701 207.01L45.5851 207.025ZM54.0122 211L55.7672 200.5H59.1722C59.8922 200.5 60.5022 200.615 61.0022 200.845C61.5022 201.075 61.8622 201.42 62.0822 201.88C62.3122 202.33 62.3672 202.885 62.2472 203.545C62.0972 204.445 61.5772 205.135 60.6872 205.615C61.1472 205.865 61.4772 206.205 61.6772 206.635C61.8772 207.055 61.9272 207.565 61.8272 208.165C61.6772 209.075 61.2622 209.775 60.5822 210.265C59.9022 210.755 59.0372 211 57.9872 211H54.0122ZM55.9772 209.44H57.9872C58.5772 209.44 59.0622 209.3 59.4422 209.02C59.8222 208.73 60.0422 208.32 60.1022 207.79C60.1622 207.34 60.0422 206.99 59.7422 206.74C59.4522 206.48 59.0022 206.35 58.3922 206.35H56.4872L55.9772 209.44ZM56.7422 204.91H58.5872C59.1572 204.91 59.6122 204.765 59.9522 204.475C60.2922 204.185 60.4922 203.79 60.5522 203.29C60.6122 202.84 60.5022 202.5 60.2222 202.27C59.9522 202.04 59.5322 201.925 58.9622 201.925H57.2372L56.7422 204.91ZM63.2817 211L65.0517 200.5H66.7317L64.9617 211H63.2817ZM70.9163 211.18C70.1363 211.18 69.4613 211.005 68.8913 210.655C68.3313 210.305 67.9213 209.825 67.6613 209.215C67.4113 208.595 67.3563 207.88 67.4963 207.07C67.6163 206.33 67.8763 205.68 68.2763 205.12C68.6763 204.55 69.1763 204.11 69.7763 203.8C70.3763 203.48 71.0313 203.32 71.7413 203.32C72.5213 203.32 73.1913 203.495 73.7513 203.845C74.3113 204.195 74.7163 204.68 74.9663 205.3C75.2263 205.91 75.2863 206.62 75.1463 207.43C75.0263 208.17 74.7663 208.825 74.3663 209.395C73.9663 209.955 73.4663 210.395 72.8663 210.715C72.2763 211.025 71.6263 211.18 70.9163 211.18ZM70.9463 209.635C71.3663 209.635 71.7513 209.535 72.1013 209.335C72.4513 209.135 72.7463 208.86 72.9863 208.51C73.2263 208.15 73.3863 207.735 73.4663 207.265C73.5363 206.785 73.5063 206.365 73.3763 206.005C73.2563 205.645 73.0513 205.365 72.7613 205.165C72.4713 204.965 72.1163 204.865 71.6963 204.865C71.2863 204.865 70.9013 204.965 70.5413 205.165C70.1913 205.365 69.8963 205.645 69.6563 206.005C69.4163 206.355 69.2563 206.765 69.1763 207.235C69.0963 207.715 69.1213 208.135 69.2513 208.495C69.3813 208.855 69.5913 209.135 69.8813 209.335C70.1813 209.535 70.5363 209.635 70.9463 209.635ZM79.1614 214.18C78.6214 214.18 78.1414 214.13 77.7214 214.03C77.3014 213.93 76.9514 213.815 76.6714 213.685C76.3914 213.555 76.1764 213.44 76.0264 213.34L76.8364 212.05C76.9664 212.13 77.1364 212.22 77.3464 212.32C77.5664 212.42 77.8264 212.51 78.1264 212.59C78.4364 212.67 78.7914 212.71 79.1914 212.71C79.8514 212.71 80.4264 212.51 80.9164 212.11C81.4064 211.71 81.7214 211.09 81.8614 210.25L83.0014 203.5H84.6664L83.5414 210.235C83.4014 211.085 83.1364 211.805 82.7464 212.395C82.3564 212.985 81.8614 213.43 81.2614 213.73C80.6614 214.03 79.9614 214.18 79.1614 214.18ZM79.5364 210.85C78.8364 210.85 78.2464 210.685 77.7664 210.355C77.2864 210.025 76.9464 209.565 76.7464 208.975C76.5464 208.385 76.5164 207.705 76.6564 206.935C76.7864 206.195 77.0314 205.56 77.3914 205.03C77.7514 204.49 78.1964 204.07 78.7264 203.77C79.2564 203.47 79.8464 203.32 80.4964 203.32C81.1764 203.32 81.7264 203.485 82.1464 203.815C82.5664 204.145 82.8464 204.605 82.9864 205.195C83.1364 205.775 83.1464 206.445 83.0164 207.205C82.8864 207.935 82.6564 208.575 82.3264 209.125C82.0064 209.675 81.6114 210.1 81.1414 210.4C80.6714 210.7 80.1364 210.85 79.5364 210.85ZM80.0464 209.44C80.4264 209.44 80.7814 209.34 81.1114 209.14C81.4414 208.94 81.7164 208.67 81.9364 208.33C82.1664 207.98 82.3164 207.575 82.3864 207.115C82.4664 206.665 82.4464 206.27 82.3264 205.93C82.2164 205.58 82.0314 205.305 81.7714 205.105C81.5114 204.905 81.1864 204.805 80.7964 204.805C80.3964 204.805 80.0264 204.905 79.6864 205.105C79.3464 205.305 79.0564 205.575 78.8164 205.915C78.5864 206.255 78.4364 206.65 78.3664 207.1C78.2864 207.55 78.3064 207.955 78.4264 208.315C78.5464 208.665 78.7464 208.94 79.0264 209.14C79.3064 209.34 79.6464 209.44 80.0464 209.44ZM88.3484 211.18C87.7984 211.18 87.3234 211.1 86.9234 210.94C86.5234 210.78 86.2084 210.57 85.9784 210.31C85.7484 210.04 85.6034 209.745 85.5434 209.425L87.0134 208.93C87.1034 209.25 87.2784 209.49 87.5384 209.65C87.8084 209.8 88.0934 209.875 88.3934 209.875C88.6434 209.875 88.8834 209.835 89.1134 209.755C89.3434 209.675 89.5334 209.555 89.6834 209.395C89.8334 209.235 89.9084 209.04 89.9084 208.81C89.9084 208.59 89.8184 208.41 89.6384 208.27C89.4584 208.13 89.1884 208.01 88.8284 207.91L88.1684 207.73C87.5984 207.58 87.1634 207.345 86.8634 207.025C86.5634 206.695 86.4134 206.32 86.4134 205.9C86.4134 205.37 86.5534 204.915 86.8334 204.535C87.1134 204.145 87.4984 203.845 87.9884 203.635C88.4784 203.425 89.0484 203.32 89.6984 203.32C90.4584 203.32 91.0434 203.47 91.4534 203.77C91.8734 204.07 92.1434 204.465 92.2634 204.955L90.8384 205.465C90.7584 205.155 90.6084 204.94 90.3884 204.82C90.1784 204.69 89.8784 204.625 89.4884 204.625C89.1084 204.625 88.7784 204.725 88.4984 204.925C88.2284 205.115 88.0934 205.36 88.0934 205.66C88.0934 205.81 88.1784 205.955 88.3484 206.095C88.5184 206.235 88.7834 206.35 89.1434 206.44L89.7584 206.605C90.4184 206.775 90.9084 207.04 91.2284 207.4C91.5484 207.75 91.7084 208.165 91.7084 208.645C91.7084 209.175 91.5484 209.63 91.2284 210.01C90.9184 210.39 90.5084 210.68 89.9984 210.88C89.4984 211.08 88.9484 211.18 88.3484 211.18ZM94.3068 207.73L95.4318 200.5H97.2618L95.9418 207.73H94.3068ZM94.6668 211.225C94.4568 211.225 94.2718 211.17 94.1118 211.06C93.9518 210.96 93.8318 210.82 93.7518 210.64C93.6718 210.46 93.6518 210.265 93.6918 210.055C93.7318 209.795 93.8568 209.575 94.0668 209.395C94.2868 209.205 94.5268 209.11 94.7868 209.11C94.9968 209.11 95.1818 209.165 95.3418 209.275C95.5018 209.375 95.6218 209.515 95.7018 209.695C95.7818 209.865 95.8018 210.055 95.7618 210.265C95.7218 210.525 95.5918 210.75 95.3718 210.94C95.1618 211.13 94.9268 211.225 94.6668 211.225Z" fill="white"/>
<defs>
<filter id="filter0_d_702_21272" x="3.86328" y="1.29102" width="281.16" height="274.156" filterUnits="userSpaceOnUse" color-interpolation-filters="sRGB">
<feFlood flood-opacity="0" result="BackgroundImageFix"/>
<feColorMatrix in="SourceAlpha" type="matrix" values="0 0 0 0 0 0 0 0 0 0 0 0 0 0 0 0 0 0 127 0" result="hardAlpha"/>
<feOffset dx="4" dy="5"/>
<feGaussianBlur stdDeviation="2"/>
<feComposite in2="hardAlpha" operator="out"/>
<feColorMatrix type="matrix" values="0 0 0 0 0.0352941 0 0 0 0 0.0352941 0 0 0 0 0.0352941 0 0 0 0.32 0"/>
<feBlend mode="normal" in2="BackgroundImageFix" result="effect1_dropShadow_702_21272"/>
<feBlend mode="normal" in="SourceGraphic" in2="effect1_dropShadow_702_21272" result="shape"/>
</filter>
<clipPath id="clip0_702_21272">
<rect width="270.541" height="112.359" fill="white" transform="translate(5.15234 154.978)"/>
</clipPath>
</defs>
</svg>
